<?xml version="1.0" encoding="utf-8"?>
<!-- Generator: Adobe Illustrator 19.0.0, SVG Export Plug-In . SVG Version: 6.00 Build 0)  -->
<svg version="1.1" xmlns="http://www.w3.org/2000/svg" xmlns:xlink="http://www.w3.org/1999/xlink" x="0px" y="0px"
	 viewBox="0 0 300 300" style="enable-background:new 0 0 300 300;" xml:space="preserve">
<style type="text/css">
	.st0{display:none;}
	.st1{display:inline;}
	.st2{fill:#232222;}
	.st3{fill:#141212;}
	.st4{fill:#FFFFFF;}
	.st5{fill:none;}
	.st6{font-family:'MyriadPro-Bold';}
	.st7{font-size:36px;}
	.st8{fill:#FCFC73;}
	.st9{fill:#001702;}
	.st10{fill:#D7DDDC;}
	.st11{fill:#F56758;}
	.st12{fill:#403F44;}
	.st13{fill:none;stroke:#798186;stroke-width:0.8246;stroke-miterlimit:10;}
	.st14{fill:#666668;}
	.st15{fill:none;stroke:#666668;stroke-width:0.8141;stroke-miterlimit:10;}
	.st16{fill:#EACFB2;}
	.st17{fill:none;stroke:#E4E774;stroke-width:0.8246;stroke-miterlimit:10;}
	.st18{fill:#473930;}
	.st19{fill:#FFFFFC;}
	.st20{fill:#E3E3E5;}
</style>
<g id="Layer_1" class="st0">
	<g id="XMLID_101_" class="st1">
		<g id="XMLID_99_">
			<path id="XMLID_217_" class="st2" d="M149.5,239c0,0,166.1-97.9,118.3-199c-12.6-26.7-71.8-63.3-118.3,0"/>
			<path id="XMLID_206_" class="st3" d="M150.5,239c0,0-166.1-97.9-118.3-199c12.6-26.7,71.8-63.3,118.3,0"/>
		</g>
		<g id="XMLID_203_">
			<path id="XMLID_204_" class="st4" d="M255.2,49.5c2.4,4.2,3.6,8.7,3.6,13.6c0,4.9-1.2,9.5-3.6,13.6c-2.4,4.2-5.7,7.5-9.9,9.9
				c-4.2,2.4-8.7,3.6-13.6,3.6s-9.5-1.2-13.6-3.6c-4.2-2.4-7.5-5.7-9.9-9.9c-2.4-4.2-3.6-8.7-3.6-13.6c0-4.9,1.2-9.5,3.6-13.6
				c2.4-4.2,5.7-7.5,9.9-9.9c4.2-2.4,8.7-3.6,13.6-3.6s9.5,1.2,13.6,3.6C249.4,42.1,252.7,45.4,255.2,49.5z M247.5,65.4v-4.5
				c0-0.6-0.2-1.1-0.7-1.6c-0.5-0.4-1-0.7-1.6-0.7H218c-0.6,0-1.1,0.2-1.6,0.7c-0.4,0.4-0.7,1-0.7,1.6v4.5c0,0.6,0.2,1.1,0.7,1.6
				c0.4,0.4,1,0.7,1.6,0.7h27.2c0.6,0,1.1-0.2,1.6-0.7C247.3,66.6,247.5,66.1,247.5,65.4z"/>
		</g>
	</g>
</g>
<g id="Layer_2">
	<rect id="XMLID_1_" y="228.2" class="st5" width="300" height="32.8"/>
	<text id="XMLID_2_" transform="matrix(1 0 0 1 41.4971 253.75)" class="st6 st7">A toda Madre</text>
</g>
<g id="Layer_3" class="st0">
	<g id="XMLID_3_" class="st1">
		<g id="XMLID_288_">
			<path id="XMLID_289_" class="st8" d="M41.9,105.1C49.1,45.7,103.4,3.8,163,11.5s102.2,62.1,95,121.4
				c-7.2,59.4-61.4,101.3-121.1,93.6C77.3,218.9,34.7,164.5,41.9,105.1z"/>
		</g>
		<g id="XMLID_285_">
			<g id="XMLID_287_">
				<path id="XMLID_19_" class="st9" d="M174.8,93.4c0,0,0.1-0.2,0.2-0.5c0.2-0.3,0.4-0.8,0.7-1.4c0.3-0.6,0.7-1.3,1.2-2.1
					c0.5-0.8,1-1.7,1.8-2.6c0.3-0.5,0.7-0.9,1.1-1.4c0.4-0.5,0.8-0.9,1.3-1.4c0.9-0.9,2-1.8,3.2-2.7c0.6-0.4,1.3-0.7,1.9-1.1
					c0.7-0.3,1.4-0.6,2.2-0.8l1.1-0.3c0.4-0.1,0.8-0.2,1.2-0.2l1.2-0.1c0.2,0,0.4,0,0.6,0l0.6,0c1.6,0.1,3.1,0.4,4.5,0.9
					c1.5,0.4,2.8,1,4.1,1.7c0.6,0.4,1.2,0.7,1.8,1.1c0.6,0.4,1.1,0.8,1.6,1.3c0.5,0.5,1,0.9,1.4,1.4c0.4,0.5,0.8,0.9,1.2,1.4
					c0.4,0.5,0.6,0.9,0.9,1.4c0.3,0.4,0.6,0.9,0.7,1.3c0.4,0.9,0.8,1.6,1,2.2c0.4,1.3,0.7,2,0.7,2l-1.3,0.4c0,0-0.3-0.7-0.7-1.8
					c-0.2-0.6-0.6-1.2-1-2c-0.2-0.4-0.4-0.8-0.7-1.2c-0.3-0.4-0.5-0.8-0.9-1.3c-0.4-0.4-0.7-0.8-1.1-1.3c-0.4-0.4-0.9-0.8-1.3-1.2
					c-0.5-0.4-1-0.7-1.5-1.1c-0.5-0.4-1.1-0.7-1.7-1c-1.2-0.6-2.5-1.2-3.8-1.5c-1.3-0.4-2.8-0.7-4.2-0.8c-0.7-0.1-1.4,0.1-2,0.1
					c-0.3,0-0.7,0.1-1,0.2l-1,0.2c-0.6,0.2-1.3,0.5-1.9,0.7c-0.6,0.3-1.2,0.6-1.7,1c-1.1,0.7-2.1,1.5-3,2.4
					c-0.4,0.4-0.9,0.8-1.3,1.3c-0.4,0.4-0.8,0.9-1.1,1.3c-0.3,0.4-0.7,0.8-0.9,1.2c-0.3,0.4-0.6,0.8-0.8,1.2c-0.5,0.7-0.9,1.4-1.2,2
					c-0.3,0.6-0.5,1-0.7,1.3c-0.1,0.3-0.2,0.5-0.2,0.5L174.8,93.4z"/>
			</g>
			<g id="XMLID_286_">
				<path id="XMLID_17_" class="st9" d="M124,93.9c0,0-0.1-0.2-0.2-0.5c-0.2-0.3-0.4-0.7-0.7-1.3c-0.3-0.6-0.7-1.2-1.2-2
					c-0.2-0.4-0.5-0.8-0.8-1.2c-0.3-0.4-0.6-0.8-0.9-1.2c-0.3-0.4-0.7-0.9-1.1-1.3c-0.4-0.4-0.8-0.9-1.3-1.3c-0.9-0.9-1.9-1.7-3-2.4
					c-0.5-0.4-1.2-0.6-1.7-1c-0.6-0.3-1.3-0.5-1.9-0.7l-1-0.2c-0.3-0.1-0.7-0.2-1-0.2c-0.7,0-1.4-0.2-2-0.1
					c-1.4,0.1-2.8,0.4-4.2,0.8c-1.4,0.4-2.6,0.9-3.8,1.5c-0.6,0.3-1.1,0.7-1.7,1c-0.5,0.4-1,0.7-1.5,1.1c-0.4,0.4-0.9,0.8-1.3,1.2
					c-0.4,0.4-0.7,0.8-1.1,1.3c-0.3,0.4-0.6,0.9-0.9,1.3c-0.3,0.4-0.5,0.8-0.7,1.2c-0.4,0.8-0.8,1.4-1,2c-0.5,1.2-0.7,1.8-0.7,1.8
					l-1.3-0.4c0,0,0.2-0.7,0.7-2c0.2-0.7,0.6-1.4,1-2.2c0.2-0.4,0.4-0.9,0.7-1.3c0.3-0.4,0.6-0.9,0.9-1.4c0.4-0.4,0.8-0.9,1.2-1.4
					c0.4-0.5,0.9-0.9,1.4-1.4c0.5-0.5,1.1-0.8,1.6-1.3c0.6-0.4,1.2-0.8,1.8-1.1c1.3-0.7,2.7-1.3,4.1-1.7c1.5-0.4,3-0.7,4.5-0.9
					l0.6,0c0.2,0,0.4,0,0.6,0l1.2,0.1c0.4,0,0.8,0.1,1.2,0.2l1.1,0.3c0.7,0.2,1.5,0.5,2.2,0.8c0.7,0.4,1.3,0.7,1.9,1.1
					c1.2,0.8,2.3,1.7,3.2,2.7c0.5,0.5,0.9,0.9,1.3,1.4c0.4,0.5,0.8,0.9,1.1,1.4c0.7,0.9,1.3,1.8,1.8,2.6c0.5,0.8,0.9,1.5,1.2,2.1
					c0.3,0.6,0.5,1.1,0.7,1.4c0.1,0.3,0.2,0.5,0.2,0.5L124,93.9z"/>
			</g>
		</g>
		<g id="XMLID_95_">
			<g id="XMLID_284_">
				<path id="XMLID_15_" d="M98.8,170.5c0,0-0.2,0.1-0.6,0.2c-0.4,0.2-0.8,0.5-1.4,0.8c-0.2,0.2-0.5,0.4-0.8,0.7
					c-0.3,0.2-0.5,0.5-0.8,0.8c-0.2,0.3-0.5,0.6-0.7,1c-0.2,0.4-0.4,0.7-0.6,1.1l-0.3,0.6l-0.2,0.6c-0.2,0.4-0.3,0.8-0.4,1.2
					c-0.1,0.4-0.3,0.8-0.3,1.1c-0.1,0.4-0.2,0.7-0.3,1c-0.2,0.6-0.3,1.2-0.4,1.6c-0.1,0.4-0.2,0.6-0.2,0.6s0-0.2-0.1-0.6
					c0-0.4-0.2-1-0.1-1.7c0-0.3,0-0.7,0-1.1c0-0.4,0.1-0.8,0.2-1.3c0.1-0.4,0.2-0.9,0.3-1.3c0.1-0.2,0.1-0.4,0.2-0.7l0.3-0.7
					c0.2-0.4,0.5-0.8,0.7-1.2c0.3-0.4,0.6-0.7,0.9-1.1c0.3-0.3,0.7-0.6,1-0.8c0.3-0.2,0.7-0.4,1-0.6c0.7-0.3,1.3-0.4,1.7-0.4
					C98.6,170.4,98.8,170.5,98.8,170.5z"/>
			</g>
			<path id="XMLID_283_" class="st10" d="M226.4,139.7c0,0,28.7-4.1,20.6,14.3C247,154,240,164,226.4,139.7z"/>
			<path id="XMLID_282_" class="st10" d="M227.8,155.5c0,0,24.2,16.4,6.3,24.7C234.1,180.3,222.5,183,227.8,155.5z"/>
			<path id="XMLID_281_" class="st11" d="M207.4,139.6c13.7,2.6,10.1,18.8,10.1,18.8c-3.9,29.2-33.6,33.9-33.6,33.9
				c-4.7,1.8-18.8,0.6-18.8,0.6c11.5-1.5,14.3-5.1,14.3-5.1s13.1-10.7,13.7-34.5C193.1,153.3,195,137.2,207.4,139.6z"/>
			<g id="XMLID_275_">
				<path id="XMLID_13_" d="M92.7,176.5c2.9,1.6,5.9,2.9,8.9,4.2c1.5,0.6,3,1.2,4.6,1.8c1.5,0.6,3.1,1.1,4.6,1.6
					c1.5,0.5,3.1,1,4.7,1.4c1.6,0.5,3.1,0.9,4.7,1.3c1.6,0.4,3.2,0.8,4.7,1.1c1.6,0.3,3.2,0.7,4.8,1c1.6,0.3,3.2,0.5,4.8,0.8
					c1.6,0.2,3.2,0.4,4.8,0.6c1.6,0.2,3.2,0.3,4.8,0.5c1.6,0.1,3.2,0.2,4.8,0.3c1.6,0,3.2,0.1,4.8,0.1l2.4,0l2.4-0.1
					c1.6,0,3.2-0.1,4.8-0.2l4.8-0.4l0.2,0l0.1,0c0.8,0,1.8,0,2.7,0c0.9,0,1.8-0.1,2.8-0.2c1.9-0.1,3.7-0.4,5.5-0.7
					c3.7-0.6,7.3-1.5,10.9-2.6c0.9-0.3,1.8-0.6,2.7-0.9c0.9-0.3,1.7-0.7,2.6-1.1c0.9-0.4,1.7-0.8,2.6-1.2c0.9-0.4,1.7-0.8,2.5-1.3
					c0.8-0.4,1.6-1,2.5-1.4c0.8-0.5,1.6-1,2.4-1.6c0.8-0.5,1.6-1.1,2.3-1.7c0.8-0.6,1.5-1.2,2.3-1.8c-0.6,0.7-1.2,1.5-1.9,2.2
					c-0.7,0.7-1.3,1.4-2.1,2c-0.7,0.7-1.5,1.3-2.2,1.9c-0.8,0.6-1.5,1.2-2.3,1.8c-0.8,0.6-1.6,1.1-2.4,1.6c-0.8,0.5-1.7,1-2.5,1.5
					c-0.9,0.5-1.7,0.9-2.6,1.4c-0.9,0.4-1.8,0.8-2.7,1.2c-3.6,1.6-7.4,2.7-11.2,3.6c-1,0.2-1.9,0.4-2.9,0.6c-1,0.2-2,0.3-2.9,0.4
					c-1,0.1-2,0.2-3,0.3c-1,0.1-2,0.1-3.1,0.1l0.3,0c-1.7,0.2-3.3,0.4-5,0.5c-1.7,0.1-3.3,0.3-5,0.3l-2.5,0.1l-2.5,0
					c-1.7,0-3.4-0.1-5-0.1c-1.7-0.1-3.3-0.2-5-0.3c-1.7-0.2-3.3-0.3-5-0.6c-1.7-0.2-3.3-0.5-5-0.8c-1.6-0.3-3.3-0.6-4.9-1
					c-1.6-0.4-3.3-0.8-4.9-1.2c-1.6-0.5-3.2-1-4.8-1.5c-1.6-0.5-3.2-1.1-4.7-1.7c-1.6-0.6-3.1-1.3-4.6-1.9c-1.5-0.7-3-1.4-4.5-2.1
					c-1.5-0.8-2.9-1.6-4.4-2.4C98,180.4,95.2,178.6,92.7,176.5z"/>
			</g>
			<g id="XMLID_226_">
				<path id="XMLID_11_" d="M191.5,188.1c0,0,0.3-0.4,0.9-1.1c0.3-0.3,0.6-0.8,1-1.2c0.2-0.2,0.4-0.5,0.6-0.8
					c0.2-0.3,0.5-0.5,0.8-0.7c2.1-2.1,4.8-5,6.9-8.3c1.1-1.6,2-3.4,2.7-5c0.2-0.4,0.3-0.8,0.5-1.3c0.1-0.4,0.3-0.8,0.4-1.2
					c0.1-0.4,0.2-0.8,0.3-1.2c0.1-0.4,0.1-0.8,0.2-1.1c0.1-0.4,0-0.7,0.1-1c0.1-0.3,0.1-0.6,0.2-0.9c0.1-0.6,0.1-1.1,0.2-1.5
					c0-0.9,0.1-1.4,0.1-1.4s0,0.1,0.1,0.3c0.1,0.2,0.2,0.6,0.3,1c0.1,0.4,0.3,1,0.3,1.6c0,0.3,0.1,0.7,0.1,1c0,0.4-0.1,0.7-0.1,1.1
					c-0.1,0.4-0.1,0.8-0.2,1.2c-0.1,0.4-0.2,0.8-0.3,1.3c-0.1,0.4-0.3,0.9-0.4,1.3c-0.2,0.4-0.3,0.9-0.5,1.3
					c-0.7,1.8-1.7,3.6-2.8,5.3c-2.2,3.4-4.9,6.4-7.1,8.5c-0.3,0.2-0.5,0.5-0.8,0.7c-0.3,0.2-0.6,0.4-0.8,0.6c-0.5,0.3-1,0.6-1.4,0.9
					C192,187.9,191.5,188.1,191.5,188.1z"/>
			</g>
		</g>
	</g>
</g>
<g id="Layer_4">
	<g id="XMLID_272_">
		<path id="XMLID_308_" class="st12" d="M156.4,19.6C102.8,19,91,47.8,91,47.8L36.6,197.3l20.4,4.8v6.9h93.4H243v-6.9l20.8-4.8
			L209.6,47.8c0,0-11.7-28.8-65.3-28.3"/>
		<path id="XMLID_303_" class="st13" d="M56.4,202.1"/>
		<g id="XMLID_302_">
			<path id="XMLID_23_" class="st14" d="M105,157.2c0,0-1.2,0.1-3.2,0.2c-0.5,0-1.1,0-1.7,0.1c-0.6,0.1-1.3,0.1-2,0.2
				c-0.7,0.1-1.5,0.1-2.3,0.2c-0.8,0.1-1.6,0.2-2.5,0.4c-0.4,0.1-0.9,0.1-1.3,0.2c-0.4,0.1-0.9,0.2-1.4,0.3
				c-0.9,0.2-1.9,0.3-2.9,0.6c-1,0.3-2,0.5-3,0.8c-1,0.3-2,0.7-3.1,1c-1,0.4-2,0.8-3.1,1.3c-1,0.5-2,1-3,1.6
				c-1.9,1.2-3.9,2.6-5.5,4.3c-1.7,1.6-3.2,3.4-4.6,5.2c-1.3,1.9-2.5,3.8-3.5,5.7c-0.9,2-1.8,3.9-2.5,5.8c-0.6,1.9-1.2,3.7-1.6,5.4
				c-0.4,1.7-0.7,3.3-0.9,4.7c-0.2,1.4-0.3,2.7-0.4,3.7c-0.2,2-0.1,3.2-0.1,3.2l-0.1,0c0,0-0.1-1.2-0.1-3.2c0-1,0.1-2.3,0.2-3.7
				c0.1-1.4,0.4-3.1,0.7-4.8c0.2-0.9,0.4-1.8,0.6-2.7c0.3-0.9,0.5-1.9,0.9-2.8c0.6-1.9,1.5-3.9,2.5-5.9c1-2,2.3-3.9,3.7-5.8
				c1.5-1.8,3.1-3.6,4.9-5.1c1.8-1.6,3.7-2.9,5.7-4.1c1-0.6,2-1.1,3-1.7c1-0.5,2-1,3.1-1.4c1-0.4,2.1-0.8,3-1.2c1-0.3,2-0.6,3-0.9
				c1-0.3,2-0.4,2.9-0.6c0.5-0.1,0.9-0.2,1.4-0.3c0.5-0.1,0.9-0.1,1.3-0.2c0.9-0.1,1.7-0.2,2.5-0.3c0.8-0.1,1.6-0.1,2.3-0.1
				c1.4-0.1,2.7-0.1,3.7-0.1C103.8,157.1,105,157.1,105,157.2L105,157.2z"/>
		</g>
		<path id="XMLID_298_" class="st15" d="M194.1,157.1c52.8-0.8,49.8,44.9,49.8,44.9"/>
		<path id="XMLID_297_" class="st4" d="M112.7,164.1c0,0-3,40.4,37.8,39.7c14.7-0.2,40.4-4,40.1-43.1c0,0-12-11.3-40.1-11.1
			C150.4,149.7,126.4,150.4,112.7,164.1z"/>
		<path id="Fill-8_2_" class="st16" d="M95.7,131.7l-0.5-55.4h108l0.3,56.2c-3.6,28.9-30.7,49.2-60.4,45.5
			c-29.8-3.7-51-30.2-47.4-59"/>
		<path id="Fill-8_1_" class="st17" d="M95.7,119"/>
		<path id="XMLID_294_" class="st4" d="M95.2,78h108c0,0-6.6-44-52.8-45.6C150.4,32.4,108.7,28,95.2,78z"/>
		<path id="XMLID_293_" class="st13" d="M109.9,161.4c0,0-12.5,47.5,40.3,47.5c0,0,55.1,5.8,41.7-49.7"/>
		<ellipse id="XMLID_292_" class="st18" cx="122" cy="103.3" rx="9.6" ry="9.8"/>
		<ellipse id="XMLID_291_" class="st18" cx="178.5" cy="103.3" rx="9.6" ry="9.8"/>
		<path id="XMLID_290_" class="st19" d="M123.4,142.5H178c0,0-5.6,22-27,22.3c0,0-22.8,0.9-28.5-22.3H123.4z"/>
		<g id="XMLID_274_">
			<path id="XMLID_21_" class="st20" d="M112.8,164c0,0,0.3,0.2,0.8,0.6c0.5,0.4,1.3,0.8,2.3,1.5c1,0.6,2.3,1.3,3.7,2.1
				c1.5,0.7,3.1,1.5,4.9,2.3c0.9,0.4,1.9,0.8,2.9,1.1c0.5,0.2,1,0.4,1.5,0.6c0.5,0.2,1,0.3,1.6,0.5c0.5,0.2,1.1,0.3,1.6,0.5
				c0.6,0.2,1.1,0.3,1.7,0.4c0.6,0.1,1.1,0.3,1.7,0.5c0.6,0.1,1.2,0.2,1.8,0.4c0.6,0.1,1.2,0.2,1.8,0.4c0.6,0.1,1.2,0.2,1.8,0.2
				c0.6,0.1,1.2,0.2,1.9,0.2c0.6,0.1,1.3,0.1,1.9,0.2c0.6,0.1,1.3,0.1,1.9,0.2c0.6,0,1.3,0,1.9,0l1.9,0c0.6,0,1.3,0,2-0.1
				c2.7,0,5.3-0.1,7.8-0.4c2.5-0.3,5-0.6,7.2-1.3c2.3-0.7,4.5-1.4,6.5-2.3c0.5-0.2,1-0.5,1.5-0.7c0.5-0.3,0.9-0.5,1.4-0.8
				c0.5-0.2,0.9-0.5,1.4-0.7c0.4-0.3,0.9-0.5,1.3-0.8c0.8-0.5,1.7-1,2.4-1.5c0.7-0.5,1.5-1,2.1-1.5c1.3-1,2.5-1.8,3.4-2.6
				c0.9-0.8,1.7-1.3,2.2-1.7c0.5-0.4,0.8-0.6,0.8-0.6l0.2,0.2c0,0-0.9,1-2.5,2.8c-0.8,0.9-1.9,1.8-3.1,3c-1.3,1.1-2.6,2.4-4.3,3.5
				c-0.4,0.3-0.8,0.6-1.3,0.9c-0.4,0.3-0.9,0.6-1.4,0.9c-0.5,0.3-0.9,0.6-1.4,0.9c-0.5,0.3-1,0.6-1.5,0.8c-2.1,1.1-4.4,2.1-6.8,2.9
				c-2.4,0.8-5.1,1.3-7.7,1.7c-2.7,0.3-5.4,0.5-8.1,0.5c-1.4,0-2.7,0-4.1,0c-0.7,0-1.4,0-2,0c-0.7-0.1-1.3-0.1-2-0.2
				c-0.7-0.1-1.3-0.1-2-0.2c-0.7-0.1-1.3-0.2-2-0.3c-0.6-0.1-1.3-0.2-1.9-0.3c-0.6-0.2-1.3-0.3-1.9-0.5c-0.6-0.2-1.2-0.3-1.8-0.5
				c-0.6-0.2-1.2-0.4-1.8-0.6c-0.6-0.2-1.2-0.4-1.7-0.6c-0.6-0.2-1.1-0.4-1.7-0.7c-1.1-0.4-2.1-0.9-3.1-1.4c-1-0.4-1.9-1-2.9-1.4
				c-3.6-1.9-6.4-3.9-8.3-5.4c-1.9-1.5-2.8-2.5-2.8-2.5L112.8,164z"/>
		</g>
	</g>
</g>
</svg>
