<?xml version="1.0" encoding="utf-8"?>
<!-- Generator: Adobe Illustrator 19.0.0, SVG Export Plug-In . SVG Version: 6.00 Build 0)  -->
<svg version="1.1" xmlns="http://www.w3.org/2000/svg" xmlns:xlink="http://www.w3.org/1999/xlink" x="0px" y="0px"
	 viewBox="0 0 300 300" style="enable-background:new 0 0 300 300;" xml:space="preserve">
<style type="text/css">
	.st0{fill:#232222;}
	.st1{fill:#141212;}
	.st2{fill:#FFFFFF;}
	.st3{fill:none;}
	.st4{font-family:'MyriadPro-Bold';}
	.st5{font-size:36px;}
</style>
<g id="Layer_1">
	<g id="XMLID_101_">
		<g id="XMLID_99_">
			<path id="XMLID_217_" class="st0" d="M149.5,239c0,0,166.1-97.9,118.3-199c-12.6-26.7-71.8-63.3-118.3,0"/>
			<path id="XMLID_206_" class="st1" d="M150.5,239c0,0-166.1-97.9-118.3-199c12.6-26.7,71.8-63.3,118.3,0"/>
		</g>
		<g id="XMLID_203_">
			<path id="XMLID_204_" class="st2" d="M255.2,49.5c2.4,4.2,3.6,8.7,3.6,13.6c0,4.9-1.2,9.5-3.6,13.6c-2.4,4.2-5.7,7.5-9.9,9.9
				c-4.2,2.4-8.7,3.6-13.6,3.6s-9.5-1.2-13.6-3.6c-4.2-2.4-7.5-5.7-9.9-9.9c-2.4-4.2-3.6-8.7-3.6-13.6c0-4.9,1.2-9.5,3.6-13.6
				c2.4-4.2,5.7-7.5,9.9-9.9c4.2-2.4,8.7-3.6,13.6-3.6s9.5,1.2,13.6,3.6C249.4,42.1,252.7,45.4,255.2,49.5z M247.5,65.4v-4.5
				c0-0.6-0.2-1.1-0.7-1.6c-0.5-0.4-1-0.7-1.6-0.7H218c-0.6,0-1.1,0.2-1.6,0.7c-0.4,0.4-0.7,1-0.7,1.6v4.5c0,0.6,0.2,1.1,0.7,1.6
				c0.4,0.4,1,0.7,1.6,0.7h27.2c0.6,0,1.1-0.2,1.6-0.7C247.3,66.6,247.5,66.1,247.5,65.4z"/>
		</g>
	</g>
</g>
<g id="Layer_2">
	<rect id="XMLID_1_" y="270.2" class="st3" width="300" height="32.8"/>
	<text id="XMLID_2_" transform="matrix(1 0 0 1 64.0513 295.75)" class="st4 st5">No me late </text>
</g>
</svg>
