<?xml version="1.0" encoding="utf-8"?>
<!-- Generator: Adobe Illustrator 19.0.0, SVG Export Plug-In . SVG Version: 6.00 Build 0)  -->
<svg version="1.1" xmlns="http://www.w3.org/2000/svg" xmlns:xlink="http://www.w3.org/1999/xlink" x="0px" y="0px"
	 viewBox="-342 131 275 300" style="enable-background:new -342 131 275 300;" xml:space="preserve">
<style type="text/css">
	.st0{display:none;}
	.st1{display:inline;fill:#F2DD77;}
	.st2{display:inline;}
	.st3{fill:#E58A30;}
	.st4{opacity:0.26;clip-path:url(#SVGID_2_);fill:#010002;enable-background:new    ;}
	.st5{opacity:0.26;clip-path:url(#SVGID_4_);fill:#010002;enable-background:new    ;}
	.st6{opacity:0.26;clip-path:url(#SVGID_6_);fill:#010002;enable-background:new    ;}
	.st7{opacity:0.26;clip-path:url(#SVGID_8_);fill:#010002;enable-background:new    ;}
	.st8{opacity:0.26;clip-path:url(#SVGID_10_);fill:#010002;enable-background:new    ;}
	.st9{opacity:0.26;clip-path:url(#SVGID_12_);fill:#010002;enable-background:new    ;}
	.st10{opacity:0.26;clip-path:url(#SVGID_14_);fill:#010002;enable-background:new    ;}
	.st11{opacity:0.26;clip-path:url(#SVGID_16_);fill:#010002;enable-background:new    ;}
	.st12{opacity:0.26;clip-path:url(#SVGID_18_);fill:#010002;enable-background:new    ;}
	.st13{opacity:0.26;clip-path:url(#SVGID_20_);fill:#010002;enable-background:new    ;}
	.st14{fill:#D99361;}
	.st15{fill:#C85B5D;}
	.st16{fill:#C55495;}
	.st17{fill:#EACFB2;}
	.st18{fill:#4FA9CA;}
	.st19{fill:#010002;}
	.st20{fill:#BEA48D;}
	.st21{fill:none;stroke:#030104;stroke-width:0.4919;stroke-linecap:round;stroke-linejoin:round;stroke-miterlimit:10;}
	.st22{fill:#C43F27;}
	.st23{fill:#571815;}
	.st24{fill:#DCD5C9;}
	.st25{fill:#846054;}
	.st26{fill:#151D2F;}
	.st27{fill:#BDDBE4;}
	.st28{fill:#113A3A;}
	.st29{fill:#0E1726;}
	.st30{fill:#402E33;}
	.st31{fill:none;stroke:#0E1726;stroke-width:0.4919;stroke-miterlimit:10;}
	.st32{fill:none;stroke:#030104;stroke-width:0.4919;stroke-miterlimit:10;}
	.st33{fill:#F7EFE6;}
	.st34{fill:#DACFC5;}
	.st35{fill:#E2AC4C;}
	.st36{fill:#DB9736;}
	.st37{clip-path:url(#SVGID_22_);}
	.st38{fill:none;stroke:#CD862C;stroke-width:7.761135e-02;stroke-miterlimit:10;}
	.st39{fill:#90501D;}
	.st40{fill:#8AADB4;}
	.st41{fill:#003433;}
	.st42{fill:#6E4B41;}
	.st43{fill:#F2DD77;}
	.st44{fill:#111811;}
	.st45{fill:#030104;}
	.st46{fill:#D6DBDA;}
	.st47{fill:#CB635A;}
	.st48{fill:#FBFDFE;}
	.st49{fill:#A07247;}
	.st50{fill:#C57C80;}
	.st51{fill:none;stroke:#030104;stroke-width:1.1534;stroke-miterlimit:10;}
	.st52{fill:#C64C38;}
	.st53{fill:#BB4B2F;}
	.st54{fill:#86B255;}
	.st55{fill:#68381A;}
	.st56{fill:#FFFFFF;}
	.st57{fill:none;}
	.st58{fill:#FEA219;}
	.st59{font-family:'MyriadPro-Bold';}
	.st60{font-size:36px;}
	.st61{display:inline;fill:none;}
	.st62{display:inline;fill:#FEA219;}
</style>
<g id="Layer_2_1_" class="st0">
	<rect x="-342" y="131" class="st1" width="275" height="300"/>
</g>
<g id="compartir" class="st0">
	<g id="Layer_2_copy_3_" class="st2">
	</g>
	<g id="Layer_2_4_" class="st2">
	</g>
	<g id="Layer_5_4_" class="st2">
	</g>
	<g id="Layer_8_3_" class="st2">
		<g id="XMLID_20_">
			<ellipse id="XMLID_36_" class="st3" cx="-204.5" cy="272.8" rx="122.9" ry="119.2"/>
			<g id="XMLID_21_">
				<g>
					<defs>
						<ellipse id="SVGID_1_" cx="-204.5" cy="272.8" rx="122.9" ry="119.2"/>
					</defs>
					<clipPath id="SVGID_2_">
						<use xlink:href="#SVGID_1_"  style="overflow:visible;"/>
					</clipPath>
					<polygon id="XMLID_34_" class="st4" points="-137.6,270.3 -25.8,363.5 -144.9,397.8 -272.9,288.1 					"/>
				</g>
			</g>
		</g>
	</g>
</g>
<g id="divertido_1_" class="st0">
	<g id="Layer_2_copy" class="st2">
	</g>
	<g id="Layer_2" class="st2">
	</g>
	<g id="Layer_5" class="st2">
	</g>
	<g id="Layer_8" class="st2">
		<g id="XMLID_15_">
			<ellipse id="XMLID_2_" class="st3" cx="-204.5" cy="272.8" rx="122.9" ry="119.2"/>
			<g id="XMLID_5_">
				<g>
					<defs>
						<ellipse id="SVGID_3_" cx="-204.5" cy="272.8" rx="122.9" ry="119.2"/>
					</defs>
					<clipPath id="SVGID_4_">
						<use xlink:href="#SVGID_3_"  style="overflow:visible;"/>
					</clipPath>
					<polygon id="XMLID_3_" class="st5" points="-137.6,270.3 -25.8,363.5 -144.9,397.8 -272.9,288.1 					"/>
				</g>
			</g>
		</g>
	</g>
	<g id="Layer_2_copy_1_" class="st2">
	</g>
	<g id="Layer_2_2_" class="st2">
	</g>
	<g id="Layer_5_2_" class="st2">
	</g>
	<g id="Layer_8_1_" class="st2">
		<g id="XMLID_1_">
			<ellipse id="XMLID_13_" class="st3" cx="-204.5" cy="272.8" rx="122.9" ry="119.2"/>
			<g id="XMLID_11_">
				<g>
					<defs>
						<ellipse id="SVGID_5_" cx="-204.5" cy="272.8" rx="122.9" ry="119.2"/>
					</defs>
					<clipPath id="SVGID_6_">
						<use xlink:href="#SVGID_5_"  style="overflow:visible;"/>
					</clipPath>
					<polygon id="XMLID_12_" class="st6" points="-137.6,270.3 -25.8,363.5 -144.9,397.8 -272.9,288.1 					"/>
				</g>
			</g>
		</g>
	</g>
	<g id="Layer_2_copy_2_" class="st2">
	</g>
	<g id="Layer_2_3_" class="st2">
	</g>
	<g id="Layer_5_3_" class="st2">
	</g>
	<g id="Layer_8_2_" class="st2">
		<g id="XMLID_14_">
			<ellipse id="XMLID_19_" class="st3" cx="-204.5" cy="272.8" rx="122.9" ry="119.2"/>
			<g id="XMLID_16_">
				<g>
					<defs>
						<ellipse id="SVGID_7_" cx="-204.5" cy="272.8" rx="122.9" ry="119.2"/>
					</defs>
					<clipPath id="SVGID_8_">
						<use xlink:href="#SVGID_7_"  style="overflow:visible;"/>
					</clipPath>
					<polygon id="XMLID_18_" class="st7" points="-144,203.7 -22.6,343.5 -146.5,439.8 -271.7,333.1 					"/>
				</g>
			</g>
		</g>
	</g>
</g>
<g id="delicioso_1_" class="st0">
	<g id="Layer_2_copy_6_" class="st2">
	</g>
	<g id="Layer_2_7_" class="st2">
	</g>
	<g id="Layer_5_6_" class="st2">
	</g>
	<g id="Layer_8_6_" class="st2">
		<g id="XMLID_67_">
			<ellipse id="XMLID_144_" class="st3" cx="-204.5" cy="272.8" rx="122.9" ry="119.2"/>
			<g id="XMLID_96_">
				<g>
					<defs>
						<ellipse id="SVGID_9_" cx="-204.5" cy="272.8" rx="122.9" ry="119.2"/>
					</defs>
					<clipPath id="SVGID_10_">
						<use xlink:href="#SVGID_9_"  style="overflow:visible;"/>
					</clipPath>
					<polygon id="XMLID_98_" class="st8" points="-137.6,270.3 -25.8,363.5 -144.9,397.8 -272.9,288.1 					"/>
				</g>
			</g>
		</g>
	</g>
	<g id="Layer_2_copy_5_" class="st2">
	</g>
	<g id="Layer_2_6_" class="st2">
	</g>
	<g id="Layer_5_5_" class="st2">
	</g>
	<g id="Layer_8_5_" class="st2">
		<g id="XMLID_55_">
			<ellipse id="XMLID_65_" class="st3" cx="-204.5" cy="272.8" rx="122.9" ry="119.2"/>
			<g id="XMLID_57_">
				<g>
					<defs>
						<ellipse id="SVGID_11_" cx="-204.5" cy="272.8" rx="122.9" ry="119.2"/>
					</defs>
					<clipPath id="SVGID_12_">
						<use xlink:href="#SVGID_11_"  style="overflow:visible;"/>
					</clipPath>
					<polygon id="XMLID_61_" class="st9" points="-137.6,270.3 -25.8,363.5 -144.9,397.8 -272.9,288.1 					"/>
				</g>
			</g>
		</g>
	</g>
	<g id="Layer_2_copy_4_" class="st2">
	</g>
	<g id="Layer_2_5_" class="st2">
	</g>
	<g id="Layer_5_1_" class="st2">
	</g>
	<g id="Layer_8_4_" class="st2">
		<g id="XMLID_38_">
			<ellipse id="XMLID_53_" class="st3" cx="-204.5" cy="272.8" rx="122.9" ry="119.2"/>
			<g id="XMLID_40_">
				<g>
					<defs>
						<ellipse id="SVGID_13_" cx="-204.5" cy="272.8" rx="122.9" ry="119.2"/>
					</defs>
					<clipPath id="SVGID_14_">
						<use xlink:href="#SVGID_13_"  style="overflow:visible;"/>
					</clipPath>
					<polygon id="XMLID_49_" class="st10" points="-139.2,208.1 -40.6,344 -167.8,449.4 -285.9,314.3 					"/>
				</g>
			</g>
		</g>
	</g>
</g>
<g id="saludable_1_">
	<g id="Layer_2_copy_9_">
	</g>
	<g id="Layer_2_10_">
	</g>
	<g id="Layer_5_9_">
	</g>
	<g id="Layer_8_9_">
		<g id="XMLID_203_">
			<ellipse id="XMLID_208_" class="st3" cx="-204.5" cy="272.8" rx="122.9" ry="119.2"/>
			<g id="XMLID_205_">
				<g>
					<defs>
						<ellipse id="SVGID_15_" cx="-204.5" cy="272.8" rx="122.9" ry="119.2"/>
					</defs>
					<clipPath id="SVGID_16_">
						<use xlink:href="#SVGID_15_"  style="overflow:visible;"/>
					</clipPath>
					<polygon id="XMLID_207_" class="st11" points="-137.6,270.3 -25.8,363.5 -144.9,397.8 -272.9,288.1 					"/>
				</g>
			</g>
		</g>
	</g>
	<g id="Layer_2_copy_8_">
	</g>
	<g id="Layer_2_9_">
	</g>
	<g id="Layer_5_8_">
	</g>
	<g id="Layer_8_8_">
		<g id="XMLID_197_">
			<ellipse id="XMLID_202_" class="st3" cx="-204.5" cy="272.8" rx="122.9" ry="119.2"/>
			<g id="XMLID_198_">
				<g>
					<defs>
						<ellipse id="SVGID_17_" cx="-204.5" cy="272.8" rx="122.9" ry="119.2"/>
					</defs>
					<clipPath id="SVGID_18_">
						<use xlink:href="#SVGID_17_"  style="overflow:visible;"/>
					</clipPath>
					<polygon id="XMLID_200_" class="st12" points="-137.6,270.3 -25.8,363.5 -144.9,397.8 -272.9,288.1 					"/>
				</g>
			</g>
		</g>
	</g>
	<g id="Layer_2_copy_7_">
	</g>
	<g id="Layer_2_8_">
	</g>
	<g id="Layer_5_7_">
	</g>
	<g id="Layer_8_7_">
		<g id="XMLID_180_">
			<ellipse id="XMLID_195_" class="st3" cx="-204.5" cy="272.8" rx="122.9" ry="119.2"/>
			<g id="XMLID_181_">
				<g>
					<defs>
						<ellipse id="SVGID_19_" cx="-204.5" cy="272.8" rx="122.9" ry="119.2"/>
					</defs>
					<clipPath id="SVGID_20_">
						<use xlink:href="#SVGID_19_"  style="overflow:visible;"/>
					</clipPath>
					<polygon id="XMLID_183_" class="st13" points="-138.9,212.6 -31.9,320.7 -127.7,418.3 -204,366 					"/>
				</g>
			</g>
		</g>
	</g>
</g>
<g id="compartir_1_" class="st0">
	<g id="XMLID_9_" class="st2">
		<g id="XMLID_191_">
			<path id="XMLID_193_" class="st14" d="M-150.3,268l9.8-5.1l1.5,2.5l-10.9,5C-149.9,270.4-149.9,267.9-150.3,268z"/>
			<path id="XMLID_192_" class="st15" d="M-156.7,261.7c0,0,4.4,5,6.8,6l9.5-4.9l-1.2-2.2c0,0-5.5-9.3-8.2-11.5c0,0-5.1-5.6-8.5-7.1
				c0,0-2.7,0.9-4,0.8c0,0,0.9,0.4,1,1.9c0,0,0.2,0.9,0,2.1c0,0-1,4.6-2.5,6.9l1.1,3.2c0,0,0.2,0.7,0.8,5.1c0,0,1.1,2.3,4.4,0.4
				C-157.3,262.4-156.7,261.7-156.7,261.7z"/>
		</g>
		<path id="XMLID_190_" class="st16" d="M-162.5,335.4l0.3-3.5l0.3-4.7c-0.1-1.6-0.5-1.6-0.5-1.6c0,0.5-1.5,1-1.5,1l-2.3,0.8
			l-2.6,0.8c0,0-1.4,0.3-3,0.3c-1.5,0-1.5-0.8-1.5-0.8c-2,2.5-5.8,3.2-5.8,3.2l-1.1,0.3c0,0-0.3,2.4,0.3,3.1c0.7,0.7,2.3,1,4.7,1
			c0,0,2.8,0.3,4-1.1l1.3-1.8c0,0,1.6-2.4,3.5-2.6c0,0,1-0.2,1.3,0.1l0.4,5.5C-164.6,335.4-163.7,335.9-162.5,335.4z"/>
		<path id="XMLID_189_" class="st16" d="M-145.7,312.5l-0.4-2.6l-0.5-2.4c0,0-0.3-1.5-0.9-1.5c0,0,0.1-0.4,1.8-0.4l4.7,0.8l3.4,0.7
			c0.4,1.2-0.2,2.5-0.2,2.5l-5.5-0.4c-0.4,0.3-0.2,1.3-0.2,1.3c0,1.9,2.3,3.7,2.3,3.7l1.5,1.4c1.2,1.4,0.7,4.2,0.7,4.2
			c-0.2,2.4-0.9,3.9-1.5,4.6c-0.7,0.7-3.1,0.1-3.1,0.1l-0.2-1.2c0,0-0.9-4.7-3.2-6.9C-147.2,316-145.5,317-145.7,312.5"/>
		<path id="XMLID_188_" class="st17" d="M-162.6,293.9l2.2-0.4l2.5,3.8l7.8,7.8l0.8,0.8c0,0,1.3-0.3,1.9,0c0,0,1,0.2,1.5,3.9
			c0,0,1,6.8-1,6c0,0-2.3-2.4-3.4-4.7l-1-2c0,0-1-1.3-2.3-2.5c-1.4-1.2-7.2-6-7.2-6l-11.4-8.9l-11.7-10c0,0,3.3,0,5.8-2.4
			c0,0,1.5-2.8,1.3-4.2c0,0,0.9,2.3,4.3,3c0,0,0.3,3.2,1.2,4.4c0,0,2.5,4.4,5.3,6.7"/>
		<path id="XMLID_187_" class="st17" d="M-166.1,289.7l1.2-0.7l-6.2-9.3l-1.2,0.4c0,0-8.4,3.6-12.1,4.8c-3.7,1.2-1.2,4.3-1.2,4.3
			l3.3,6.5l8.4,15.2l4.8,9.2c0.9,1.8,1.3,2.5,0.9,3.2c-0.4,0.8-2.8,2.2-2.8,2.2c-1.2,0.8-1.5,0.9-2,1.6c-0.4,0.8,0.3,1.1,0.7,1.2
			c0.7,0.2,3.2-0.1,3.2-0.1c1.4-0.2,3.7-1,3.7-1c3.1-1.1,3.5-1.2,3.1-2c-0.5-1-1.5-1.8-1.5-1.8l-0.5-0.9l-1.1-2.5l-5.5-14.4
			c0,0-1.3-5-1.6-6.1c0,0-1.3-5.6-3-7.1L-166.1,289.7z"/>
		<path id="XMLID_186_" class="st18" d="M-162.6,293.9c0,0,8-1,25.3-9c0,0,5.4-2.3,4.8-9.2c0,0,0-1.6-3-5.8l-4.9-7.1l-9.8,5.1
			c0,0,0.2,0.4,0.3,1.2c0,0.3,0.1,1.2,0.1,1.2s-0.4,3.4-3.4,3.6l-19.7,0.5c0,0-0.4,7.3,3,10.6L-162.6,293.9z"/>
		<path id="XMLID_185_" class="st17" d="M-174.6,236.2c0.2,2.1-0.8,2.6-0.8,2.6c-0.3-3-0.5-3.5-1.3-3.2c-1.4,0.8-0.8,3.2-0.8,3.2
			c-1.4-0.3-2,1-2,1c-0.4,0.7,0.3,2,0.3,2l0.5,14.1c0.4,2.8,0.1,5.7,0.9,7.3c1,2,2.3,3.1,3.6,2.8s5.5-5.3,5.5-5.3
			c3.5-4.3,6.5-11.5,6.5-11.5c1.2-3.2,0.7-5.3,0.7-5.3c-0.3-2.6-2.5-2.3-2.5-2.3c-1.9,0-2.5,1.9-2.5,1.9l-0.8,3.2
			c-1.1,5.8-6.8,12.9-6.8,12.9l-1-7.1l-0.7-10.9c0,0,2.3,0.3,3.9-1.2c1.3-1.2,1.2-3,1.2-3c0-2-0.8-0.9-0.9-0.5
			c-0.9,1.8-1.6,2.1-1.6,2.1c0.4-1,0.5-1.4,0.4-1.9c0,0,0-1.5-1.4-1.8C-174,235.6-174.7,235.6-174.6,236.2z"/>
		<path id="XMLID_182_" class="st17" d="M-174.6,236.2c0.2,2.1-0.8,2.6-0.8,2.6c-0.3-3-0.5-3.5-1.3-3.2c-1.4,0.8-0.8,3.2-0.8,3.2
			c-1.4-0.3-2,1-2,1c-0.4,0.7,0.3,2,0.3,2l0.5,14.1c0.4,2.8,0.1,5.7,0.9,7.3c1,2,2.3,3.1,3.6,2.8s5.5-5.3,5.5-5.3
			c3.5-4.3,6.5-11.5,6.5-11.5c1.2-3.2,0.7-5.3,0.7-5.3c-0.3-2.6-2.5-2.3-2.5-2.3c-1.9,0-2.5,1.9-2.5,1.9l-0.8,3.2
			c-1.1,5.8-6.8,12.9-6.8,12.9l-1-7.1l-0.7-10.9c0,0,2.3,0.3,3.9-1.2c1.3-1.2,1.2-3,1.2-3c0-2-0.8-0.9-0.9-0.5
			c-0.9,1.8-1.6,2.1-1.6,2.1c0.4-1,0.5-1.4,0.4-1.9c0,0,0-1.5-1.4-1.8C-174,235.6-174.7,235.6-174.6,236.2z"/>
		<path id="XMLID_179_" class="st19" d="M-166.5,246.1c0,0-1.5,7-5.3,9l-5.9-1.2c0,0,4.2-1.8,6.5-5.6c0,0-3.7,2.3-8.3,2.1
			c0,0-3.7-0.3-6.2-1.8c0,0,6.2,0.9,9.4-3.2c1.5-2,4.7-5.9,5-8.6l0.1-0.9l4.7,1.6l0.8,0.2C-165.8,237.9-166.5,242.6-166.5,246.1"/>
		<path id="XMLID_178_" class="st17" d="M-175.9,216.8c0,0-0.5,11.2,7.7,14.1c0,0,0.9-1.2,2.7-1.1c0,0,1.6,0,2.3,1.8
			c0,0,0,4.2-4,3.7c0,0-2.1,4.5-3.4,5.5c-1.9,1.4-6.3,2-9.2-0.7c0,0-1.1-0.4-1-3.2c0,0-1.2-0.9-0.5-1.6c0,0-0.4-1,0.1-1.6l0.8-1.4
			c0,0-2.3,0.5-2.2-1.8c0-0.5,0.3-1.2,2-0.8c0,0,1.4,0.3,1.6-1c0,0-1.6-3.3-1.1-5.3c0,0,0.5-2.8,4.3-4L-175.9,216.8z"/>
		<g id="XMLID_175_">
			<path id="XMLID_206_" class="st20" d="M-175.5,241.8L-175.5,241.8L-175.5,241.8L-175.5,241.8c1,0,2.1-0.1,3-0.7
				c0.9-0.4,1.6-1.3,1.9-2.2c0.1-0.4,0.2-1,0.2-1.5c0-0.2,0-0.5-0.1-0.7c-0.1-0.1,0-0.1-0.1-0.1c-0.1,0-0.1,0.1-0.2,0.2
				c-0.1,0.2-0.2,0.4-0.3,0.7c-0.1,0.2-0.2,0.4-0.4,0.7c-0.1,0.2-0.3,0.4-0.5,0.7c-0.2,0.2-0.3,0.3-0.7,0.5l-0.4,0.2l0.2-0.4
				c0.2-0.5,0.5-1.2,0.4-1.8l0,0l0,0c0-0.3-0.1-0.8-0.3-1c-0.2-0.3-0.5-0.4-0.9-0.5l0,0c-0.1,0-0.2,0-0.3,0.1s-0.1,0.1-0.1,0.2v0.4
				c0,0.2,0,0.3,0,0.5c0,0.3-0.1,0.7-0.2,1c-0.1,0.2-0.1,0.3-0.2,0.4c-0.1,0.1-0.2,0.3-0.4,0.4l-0.2,0.1v-0.3
				c-0.1-0.7-0.1-1.2-0.2-1.9c0-0.3-0.1-0.5-0.2-0.9c-0.1-0.3-0.2-0.5-0.4-0.4c-0.1,0-0.2,0.1-0.3,0.2c-0.1,0.1-0.2,0.2-0.3,0.3
				c-0.1,0.2-0.2,0.5-0.3,0.8c-0.1,0.5-0.1,1.2,0.1,1.8v0.1h-0.1c-0.3-0.1-0.8-0.1-1.1,0.1c-0.3,0.1-0.7,0.4-0.8,0.8l0,0
				c-0.1,0.1-0.1,0.2-0.1,0.3h-0.3c0-0.1-0.1-0.2-0.1-0.4l0,0c1.1-0.3,0.8-0.7,1.1-0.9c0.3-0.2,0.9-0.2,1.3-0.1l0,0
				c-0.1-0.5-0.1-1.2-0.1-1.9c0-0.3,0.2-0.5,0.3-0.9c0.2-0.2,0.4-0.4,0.8-0.5c0.1,0,0.3,0,0.4,0.1c0.1,0.1,0.2,0.2,0.2,0.4
				c0.1,0.3,0.1,0.5,0.2,0.9c0.1,0.7,0.2,1.2,0.2,1.9l0,0c0.2-0.2,0.4-0.5,0.5-0.8c0.1-0.3,0.2-0.7,0.2-1c0-0.3,0-0.8,0-1.1
				c0-0.3,0.4-0.8,0.8-0.8l0,0c0.4,0,1,0.3,1.2,0.7c0.2,0.3,0.5,0.9,0.5,1.3l0,0c0,0.7-0.3,1.3-0.5,1.9h-0.1c0.4-0.2,0.8-0.7,1.1-1
				c0.1-0.2,0.2-0.4,0.3-0.7c0.1-0.2,0.2-0.4,0.3-0.7c0.1-0.1,0.2-0.2,0.3-0.2c0.1-0.1,0.2,0.1,0.3,0.2c0.1,0.2,0.1,0.5,0.1,0.8
				c0,0.5,0,1-0.2,1.5c-0.3,1-1.1,1.8-2,2.3C-173.4,241.6-174.5,241.8-175.5,241.8L-175.5,241.8L-175.5,241.8L-175.5,241.8z"/>
		</g>
		<path id="XMLID_174_" class="st21" d="M-177.8,228.6c0,0,3-2.2,3.5,0.8"/>
		<path id="XMLID_173_" class="st21" d="M-167.8,231.9c0,0,2.2-0.5,2.7,0.2c0,0,0.4,0.8,0,1.4c-0.4,0.7-0.2,0.3-0.4,0.7"/>
		<path id="XMLID_172_" class="st21" d="M-166.4,233.3c0,0,1.1-0.5,1.2-1.2"/>
		<path id="XMLID_171_" class="st21" d="M-177,224.4c0,0,1.9-0.2,2.5,0.1"/>
		<path id="XMLID_170_" class="st22" d="M-181.3,233.6c0,0,0.9,0.1,2,0.1c0,0,0,2.6-1.5,3.1c0,0-1.2-0.9-0.5-1.6
			C-181.4,235.2-181.8,234.2-181.3,233.6z"/>
		<path id="XMLID_169_" class="st19" d="M-150.4,251.7c-1.3,0.2-2-0.5-2-0.5c-0.2,1,0.7,1.8,0.7,1.8c-1.2,0-1.4-1.1-1.4-1.1
			c-0.3,2.4,2.7,3.7,2.7,3.7c-2.4-0.3-3.9-1.4-4.7-2.5c-4.3-5.9-4.5-10.7-4.5-10.7c-0.3,8.9-3.5,13.9-3.5,13.9l-2.1-0.8
			c2.1-5.1,2.7-13.1,2.7-13.1l-1.5-0.1c0.1,2.5-3.4,12.8-3.4,12.8l-2.4-0.3c1.4-3.4,2.7-11.5,2.7-11.5l0.9-5.5
			c-0.7,1.9-3.2,6.8-3.2,6.8c-2.8,4.9-6.7,7.1-6.7,7.1c-2-0.1-3.4-0.4-3.4-0.4l-1-0.2c1.8-1.2,2.6-2,2.6-2c2.8-1.9,7.4-8.4,7.4-8.4
			c1.5-1.9,3.1-5.3,3.1-5.3c0.9,0.3,2.6-0.5,2.6-0.5c2.6-2.6,0.5-4.4,0.5-4.4c-2.1-1.5-4.2,0.7-4.2,0.7c-4.7-1.9-6.1-6-7.2-9.1
			c-2.6,1-4,6.7-4,6.7c-2.2-3.3-1.3-5-1.3-5c0.7-3.2,4.2-4.4,4.2-4.4s-1.1-1.9,0.3-2.5c0.8-0.3,0.2-0.1,1.3-0.5
			c2.5-1,11.1-3.7,17.9,1.2c0,0,5,4,4.9,9.7v1.2c0,0-0.9,6.8,3,12.6c0,0,1.6,3.7,6,2.7c0,0-0.8,1.1-3.6,1.3c0,0,2.7,1.3,5.5-0.4
			c0,0-1,1.1-1.5,1.4c0,0,1.4,0.1,2.7-0.2c0,0-0.8,1.2-2.8,1.5c0,0,1.1,0.2,2.4,0c0,0-1.9,3.8-5.3,4.4c0,0-2.3,0.5-4-0.7
			c0,0,0.5,1.4,1.9,1.6L-150.4,251.7z"/>
		<g id="XMLID_161_">
			<path id="XMLID_168_" class="st23" d="M-157.7,292.5c0,0-1.3,19.9-0.9,23.5c0,0,0.3,16.2,1.5,19.4c0,0,3.1,2.5,5.8-0.9
				c0,0-2.3-11.5-2.3-19s1.1-22.4,1.1-22.4S-156.8,292.8-157.7,292.5"/>
			<path id="XMLID_167_" class="st23" d="M-130,291.3c0,0,3.9,20.7,3.9,24.3c0,0,1.5,16.2,0.7,19.5c0,0-2.7,2.8-5.9-0.2
				c0,0,1-11.6,0.1-19.1c-0.9-7.5-3.7-24-3.7-24s3.6,0,4.5-0.4"/>
			<path id="XMLID_166_" class="st24" d="M-124.8,284.2l-19.8,1.2c-11.5,0.9-13.7,2.2-13.7,2.2s-0.5,2.7,0,4.6c0,0,0.5,0.7,5.9,0.9
				s27.2,0,27.2,0S-123.5,287-124.8,284.2z"/>
			<path id="XMLID_165_" class="st23" d="M-129.3,284.5l3.3-0.2l0.9-11.1c0,0-2.1-0.9-3.2-2.4L-129.3,284.5z"/>
			<path id="XMLID_164_" class="st24" d="M-124.3,273c0,0,3.5-22.4,4.3-36.3c0,0-1.8-3.6-7.2,0.3c-1.5,1.1-1.8,2.1-2.6,7
				c-0.8,4.9-1.6,15.6-0.7,21.6c0,0,0.8,4.5,3.6,6.6C-126.8,272.1-125.3,273.3-124.3,273z"/>
			<ellipse id="XMLID_163_" class="st23" cx="-123.2" cy="231.5" rx="3.3" ry="3.2"/>
			<path id="XMLID_162_" class="st23" d="M-126.2,236.3c0,0-0.7-2.5,3-2.5c0,0,2-0.3,2.7,2.1c0,0-1.3-1.2-2.8-0.8
				C-123.4,235.2-125,235.5-126.2,236.3z"/>
		</g>
		<path id="XMLID_160_" class="st23" d="M-248.9,291.9c0,0,1.3,19.9,0.9,23.5c0,0-0.3,16.2-1.5,19.4c0,0-3.1,2.5-5.8-0.9
			c0,0,2.3-11.5,2.3-19c0-7.7-1.1-22.4-1.1-22.4S-249.8,292.4-248.9,291.9"/>
		<path id="XMLID_158_" class="st23" d="M-276.5,290.7c0,0-3.9,20.7-3.9,24.3c0,0-1.5,16.2-0.7,19.5c0,0,2.7,2.8,5.9-0.2
			c0,0-1-11.6-0.1-19.1s3.7-24,3.7-24s-3.6,0-4.5-0.4"/>
		
			<ellipse id="XMLID_127_" transform="matrix(-0.1287 -0.9917 0.9917 -0.1287 -557.4957 -16.0414)" class="st23" cx="-285.8" cy="236.9" rx="3.2" ry="3.3"/>
		<path id="XMLID_126_" class="st23" d="M-282.3,241.4c0,0,0.3-2.6-3.2-2.1c0,0-2,0-2.4,2.4c0,0,1.1-1.3,2.7-1.1
			C-285.2,240.6-283.6,240.7-282.3,241.4z"/>
		<g id="XMLID_123_">
			<path id="XMLID_125_" class="st25" d="M-243,318.7l-7-5.1l3.2-4.2l16.2-25.1c0.1-1-0.7-0.7-0.7-0.7l-10,1.8l-14.1-3.4l-0.9-0.2
				c0.7-0.8,2.4-1.3,2.4-1.3l2.1,1.3l3.4-2.6c7.9-2.2,30-3.6,30-3.6l-5.3,9.7l-8.6,16l-10,18.2L-243,318.7"/>
			<path id="XMLID_124_" class="st25" d="M-232.7,336.3c0,0,0,0.9,3.3,0.7c0,0,2.7-0.3,4-1c0,0,0.8-0.2,0.9,0.5c0,0,8,0.3,12.6-1.3
				c0,0,1-4.2-2.1-5.7c0,0-2.8-1-8,1c0,0-2.4-0.8-2.4-3.1c0,0,0.9-0.4,1-0.9c0,0-0.7-11.1-1-14.1c0,0-1.5-15.9-2.2-22.4
				c-0.2-1.6-6.5-2.8-11.3-3.7l-18.4-4.4l-9.2,6.3l16.3,1.4c0,0,1.2,0.1,1.2,2.1l-0.1,0.8l15.1,2.4c0,0,0.8,7,0.4,15.9l-1,16.4
				c0,0,0.3,0.5,1.8,0.5C-231.6,327.8-233.2,334.3-232.7,336.3z"/>
		</g>
		<g id="XMLID_115_">
			<g id="XMLID_119_">
				<g id="XMLID_121_">
					<path id="XMLID_122_" class="st24" d="M-276.4,257.8c0.5,2.5,0.3,8.8,0.3,8.8c0,5.9-2.4,8.4-2.4,8.4s-2,2.8-3.9,2l-5.5-35.7
						c0,0,0.3-1.3,3.4-0.9c0,0,3.9,0.3,5.1,2.7C-279.3,243.3-276.8,249.7-276.4,257.8z"/>
				</g>
				<path id="XMLID_120_" class="st23" d="M-276.5,288.9l-2-13.6c-1.9,2.3-3,2.3-3,2.3l1.4,11.4h3.5V288.9z"/>
			</g>
			<g id="XMLID_116_">
				<path id="XMLID_118_" class="st24" d="M-281.4,288.9c-0.5,3.3,0.4,7.9,0.4,7.9l33-1.5l-0.1-2.6l0.1-0.8c0-1.9-1.2-2.1-1.2-2.1
					l-16.3-1.2l-10.7,0.4h-5.3V288.9z"/>
			</g>
		</g>
		<g id="XMLID_114_">
			<path id="XMLID_184_" class="st26" d="M-251.3,278.6c-1.2-0.8-3.1-2.4-3.1-2.4c-3.9-3.6-4.2-6.6-4.2-6.6l-0.8-6.3
				c-0.2-2.2,0.5-0.8,0.5-0.8l4,7.4c1.3,2.7,4.5,1.8,4.5,1.8l20.1-8.2c0.2-3.9-3.8-6.5-3.8-6.5l-6.5,3.1l-3.8-3.5
				c-3.1-3-7.1-9-7.1-9c-0.8-0.8-0.4-1.9-0.4-1.9l3.1-2.3l-5.7-6.7l-1.9,1.2c-3.2,0-6.3,1.9-6.3,1.9c-5.9,3.3-9.2,7.9-9.2,7.9
				c-5.1,5.4-4.6,10.2-4.6,10.2c0.5,2.5,0.3,8.8,0.3,8.8c0,5.9-2.4,8.4-2.4,8.4c-0.5,4.2,2.3,13.5,2.3,13.5l10.7-0.2l8.9-6.1
				l0.3-0.3c0.7-0.8,2.4-1.3,2.4-1.3l2.1,1.3l3.4-2.6l-0.7-0.1C-250.9,278.9-251.3,278.6-251.3,278.6z M-246.6,262.5l-2.5,1
				c-1.9,0.2-2.2-1.2-2.2-1.2l-1.4-6.6L-246.6,262.5z"/>
		</g>
		<g id="XMLID_112_">
			<path id="XMLID_113_" class="st27" d="M-256.4,238l1.9-1.2l5.7,6.7l-3.1,2.3c0,0-0.1,1.1-1.2,1.5c0,0,1.1-3.8-1.1-6.6L-256.4,238
				z"/>
		</g>
		<polygon id="XMLID_111_" class="st28" points="-268.9,278.6 -261.3,274.3 -256.7,279.4 -257.9,282.6 -260.8,284.2 -264.1,284.9 		
			"/>
		<path id="XMLID_110_" class="st29" d="M-260.5,258.6l-6.5,4.3c0,0-1.9,1.9,1.8,5.8l10,9.3l-4.3-6.7c0,0-2-4.2-0.3-8l0.3-1.4
			l0.3-0.2L-260.5,258.6z"/>
		<g id="XMLID_107_">
			<path id="XMLID_109_" class="st26" d="M-222.2,257.6c-1.2,1.9-2.4,3.7-3.7,5.1c-3.9,4.6-7.5,5.3-7.5,5.3c-3.6,1-6.3-0.7-6.3-0.7
				l-6.3-4.6"/>
			<path id="XMLID_108_" class="st26" d="M-252.9,255.3c-0.5-2.3-0.9-5-1.3-7.4l0.9-0.3c1-0.1,1.4-1.9,1.4-1.9s-0.2,1.1,0.4,1.9
				c0,0,4,6,7.1,9l3.8,3.5l0.8,0.1l7.7,1.4l5.8-9c1.1-1.8,3.1-6.9,3.1-6.9l5.4,4.2c0,0-1.9,3.8-4.4,7.7c-1.2,1.9-2.4,3.7-3.7,5.1
				c-3.9,4.6-7.5,5.3-7.5,5.3c-3.6,1-6.3-0.7-6.3-0.7l-6.3-4.6"/>
		</g>
		<g id="XMLID_106_">
			<path id="XMLID_66_" class="st29" d="M-251.7,261.8c0,0,0-0.1-0.1-0.2c-0.1-0.1-0.2-0.3-0.2-0.7c-0.1-0.3-0.2-0.5-0.2-1
				c-0.1-0.3-0.1-0.8-0.2-1.1s-0.1-0.8-0.2-1.1c0-0.3-0.1-0.7-0.1-1s0-0.5,0-0.7c0-0.2,0-0.2,0-0.2l0,0c0,0,0.3,1.5,0.5,3
				C-251.9,260.4-251.7,261.8-251.7,261.8L-251.7,261.8z"/>
		</g>
		<g id="XMLID_105_">
			<path id="XMLID_62_" class="st29" d="M-246.2,262.6c0,0-0.5-0.3-1.2-1c-0.3-0.3-0.8-0.7-1.2-1.1c-0.4-0.4-0.9-0.9-1.3-1.3
				c-0.4-0.4-0.8-1-1.2-1.4c-0.3-0.4-0.7-0.9-1-1.2c-0.5-0.8-0.9-1.3-0.9-1.3l0,0c0,0,1.6,1.9,3.4,3.6
				C-247.8,260.7-246.2,262.6-246.2,262.6L-246.2,262.6z"/>
		</g>
		<g id="XMLID_101_">
			<path id="XMLID_104_" class="st30" d="M-243,318.7l-2.2,4.6c0,0-0.9,2,1.5,3.5c0,0,1.6,1.4,3.6,1c0,0,4-1.4,4.2,0.3
				c0,0,0.4,3.1-0.1,3.7c0,0-7,3.9-10.9,0.8c-2.3-2-6.5-8-6.5-8s-1.6-3.1-0.7-4.2c0,0,2.8-4.7,5.8-5.8L-243,318.7z"/>
			<path id="XMLID_102_" class="st30" d="M-224.4,327.3c0,2.3,2.4,3.1,2.4,3.1c5.1-1.9,8-1,8-1c3,1.5,2.1,5.7,2.1,5.7
				c-4.6,1.6-12.6,1.3-12.6,1.3c-0.1-0.8-0.9-0.5-0.9-0.5c-1.3,0.8-4,1-4,1c-3.2,0.2-3.3-0.7-3.3-0.7c-0.4-2.1,1.1-8.4,1.1-8.4
				S-226.7,328-224.4,327.3z"/>
		</g>
		<g id="XMLID_99_">
			<path id="XMLID_100_" class="st17" d="M-233.5,257.3c0,0,1.4-2.3,1.6-3.6l0.3-1.4l0.2-3.3c0,0,0-0.8,1-0.9c0,0,1.1-0.2,1.2,0.8
				l0.9,4l0.1-0.9l0.8-4.7c0.4-0.7,1.3-0.4,1.3-0.4c1,0.1,1,0.8,1,0.8l-0.4,5.3l3.3-3.8c0,0,0.5-1.1,1.5-0.3c1.3,1,0.4,1.9,0.4,1.9
				l-3.9,5.3c-0.7,0.9-0.5,1.3-0.5,1.3l3.5,0.3c1.4,0.1,1.3,1.3,1.3,1.3c-0.2,1.4-1.4,1.3-1.4,1.3l-6.6,0.7c0,0-1.8,0.2-2.6,0
				C-230.6,261.1-232,258.3-233.5,257.3z"/>
		</g>
		<g id="XMLID_92_">
			<path id="XMLID_95_" class="st17" d="M-222.7,246.1l0.1-7.4c0,0-0.2-1.2,1.2-1.5c0,0,1.1-0.2,1.4,1.2l0.7,3.5
				c0,0,0.5,0.1,1.3-0.7l4.9-4.4c0,0,0.9-0.9,1.9,0.3c0.9,1-0.2,1.5-0.2,1.5l-3.6,3.6l5.3-0.9c0,0,0.7-0.1,0.8,0.9
				c0,0,0.3,0.9-0.3,1.3l-4.6,1.1l-0.9,0.2l4.2,0.5c1,0.1,0.9,1.2,0.9,1.2c-0.1,1-0.9,1-0.9,1l-3.2,0.4l-1.3,0.4
				c-1.2,0.4-2.7,1.3-2.7,1.3L-222.7,246.1z"/>
		</g>
		<g id="XMLID_91_">
			<path id="XMLID_228_" class="st29" d="M-246.6,262.5c0,0,0.3-0.2,1-0.4c0.5-0.2,1.3-0.5,2.1-0.9s1.5-0.5,2.2-0.8
				c0.5-0.2,1-0.3,1-0.3s-0.3,0.2-1,0.4c-0.5,0.2-1.3,0.5-2.1,0.9c-0.8,0.3-1.5,0.5-2.2,0.8C-246.3,262.4-246.6,262.5-246.6,262.5z"
				/>
		</g>
		<path id="XMLID_90_" class="st31" d="M-228.1,264.9"/>
		<path id="XMLID_89_" class="st31" d="M-240.7,266.5"/>
		<g id="XMLID_74_">
			<path id="XMLID_88_" class="st17" d="M-243.9,215c0.8,0.1,1.3,0.9,1.3,0.9c2.3,3.4,1.4,5.5,1.8,7.3c0.3,2.3,2.6,1.6,2.6,1.6
				c1.5-0.3,1.8,0.3,1.9,0.8c0.5,2.4-3.1,2.6-3.1,2.6c0.3,1.8,1.1,8,1.2,9.8c0.1,1.8-7.2,0.7-7.2,0.7c-3.5-0.2-5.5,2.2-5.5,2.2
				c-0.5-0.8-3-3.4-3-3.4l1.1-1.2c0.3-0.5,0.2-0.8,0.2-0.8l-1.3-3.6c-1,2-4,0.4-4,0.4c-2.5-2-1.3-4.5-0.2-5.3c2.3-1.5,4.7,2,4.7,2
				c0.4-0.3,1-0.7,1-0.7c-0.4-1.1-1.5-6.6-1.5-6.6c1.2-0.4,2.1-1.6,2.1-1.6l-0.3-2.7c0.5-1.4,1.9-1.4,1.9-1.4
				c-0.3,0.8-0.1,2.7-0.1,2.7S-248.8,214.4-243.9,215z"/>
			<path id="XMLID_87_" class="st19" d="M-252.5,235.6l-1.3-3.6c-1,2-4,0.4-4,0.4c-2.5-2-1.3-4.5-0.2-5.3c2.3-1.5,4.7,2,4.7,2
				c0.4-0.3,1-0.7,1-0.7c-0.4-1.1-1.5-6.6-1.5-6.6c1.2-0.4,2.1-1.6,2.1-1.6l-0.3-2.7c0.5-1.4,1.9-1.4,1.9-1.4
				c-0.3,0.8-0.1,2.7-0.1,2.7s1.4-4.5,6.3-3.8c0.8,0.1,1.3,0.9,1.3,0.9s4.2-5.6-0.8-6.7c0,0-3.2-0.5-7.7-0.2c-5,0.4-8,1-11.5,3.9
				c0,0-3.4,2.2-1.5,10.5c0,0,1.8,8,6.1,9.7c0,0-0.2,3.2,1.9,3L-252.5,235.6z"/>
			<path id="XMLID_84_" class="st32" d="M-242.6,215.9c0,0-0.5-0.8-1.3-0.9c-4.9-0.7-6.3,3.8-6.3,3.8s-0.1-2,0.1-2.7
				c0,0,0.5-1.5,1.4-1.9c0,0-2-0.4-3.1,1.9c0,0-0.2-3.1,1.4-4.4c0,0,2.4-2.6,6.9-1.2c0,0-4.5-2.3-7.4,0.3c0,0,1-2.8,7.4-1.6
				C-238.5,210.2-242.6,215.9-242.6,215.9"/>
			<path id="XMLID_81_" class="st22" d="M-249.1,228.6l9.5,1.6c0,0-1.1,5.7-4.3,6C-243.8,236.1-246.8,236.5-249.1,228.6z"/>
			<path id="XMLID_80_" class="st32" d="M-246.1,224.5c0,0,1.2-2.6,3.4-1"/>
			<path id="XMLID_79_" class="st32" d="M-254.7,229.7c0,0-2.6-1.2-3.3,1.4"/>
			<g id="XMLID_76_">
				<path id="XMLID_77_" class="st19" d="M-246.4,219.1c0.8-0.4,1.5-0.4,2.6-0.4l-0.2,1c-0.9,0-1.5,0.1-2.1,0.4
					c-1.3,0.7-2.1,1.9-2.1,1.9s0-0.9,0.1-1.4C-248.1,220.4-247.2,219.5-246.4,219.1z"/>
			</g>
		</g>
		<path id="XMLID_73_" class="st24" d="M-200.4,279.8c0,0,1.6,5.9,7.2,5.7c0,0,5,0.8,6.7-4.9c0,0,1.6,2.6,6.1,0.9c0,0,3.4-2,3.6-5.4
			c0,0,2.1,2.5,4,2.3c0,0,1.3-0.5,2.2-5.4c0,0,0.8-6.2,0.4-7.9l-59.5,0.3c0,0-0.4,2.8,1.2,10.3c0,0,0.3,5,2.6,5.5
			c0,0,1.3,0.5,3.3-0.8c0,0-0.7,3.2,3.9,3.3c0,0,2.5,0.3,6.1-2.4c0,0,0.1,3.6,4.7,4.3C-207.8,285.6-203.4,286.8-200.4,279.8z"/>
		<path id="XMLID_72_" class="st23" d="M-201.1,314.7c0,0,7.8-1.1,11.5,2.1c0,0,3.2,2.2,3.7,8.4c0,0,0.5,2.8-0.7,4.4
			c0,0,4.8,0,4.7,2.6c0,0,0.4,1.6-4,1.5c0,0-2.3-0.4-3.5-1.4c0,0,0-5.1-1.6-7.1c0,0-2.3-4.5-9.3-3.4h-1c-7-1.1-9.3,3.4-9.3,3.4
			c-1.6,2-1.6,7.2-1.6,7.2c-1.2,1-3.5,1.4-3.5,1.4c-4.5,0.1-4-1.5-4-1.5c-0.1-2.6,4.7-2.6,4.7-2.6c-1.2-1.6-0.7-4.4-0.7-4.4
			c0.5-6.2,3.7-8.4,3.7-8.4c3.7-3.2,10.7-2.1,10.7-2.1L-201.1,314.7z"/>
		<path id="XMLID_71_" class="st23" d="M-203.3,315.1c0.9-3.3,0.4-12.3,0.4-12.3l-1.1-9.7c-1.6-0.1-1.4-1.2-1.4-1.2
			c0-0.7,1.1-0.7,1.1-0.7l-1.5-4.8l0.2-1c0,0,3.3-0.8,5.3-5.6c0,0,0.8,4.4,5.1,5.5v1.1l-1.5,4.8c0,0,1,0,1.1,0.7c0,0,0.2,1-1.4,1.1
			l-1.1,9.8c0,0-0.4,9,0.4,12.3H-203.3z"/>
		<g id="XMLID_159_">
			<path id="XMLID_157_" class="st33" d="M-200.8,267.3c-6.1,0-11.1-1.6-11.1-3.7s4.8-3.7,11.1-3.7c3.7,0,6.9,0.4,8.8,1.2
				c1.4,0.5,2.3,1.5,2.3,2.5c0,0.7-0.1,1.5-1.4,2.2C-193,266.8-196.7,267.3-200.8,267.3z"/>
			<g id="XMLID_156_">
				<path id="XMLID_204_" class="st33" d="M-192,263.5c0,0.5-0.1,1.1-1,1.5c-1.5,0.8-4.5,1.2-7.3,1.2c-4.6,0-8.3-1.2-8.3-2.7
					c0-1.5,3.7-2.7,8.3-2.7c2.6,0,5.3,0.3,6.8,1C-192.6,262.2-192,262.8-192,263.5z"/>
				<path id="XMLID_201_" class="st34" d="M-192,263.5c0,0,0,0.1,0,0.4c0,0.2-0.2,0.7-0.7,1c-0.9,0.5-2.3,0.9-4,1.1
					c-1.8,0.2-3.8,0.3-6,0.1c-1.1-0.1-2.2-0.3-3.3-0.7c-0.5-0.2-1.1-0.3-1.6-0.7c-0.4-0.3-1.1-0.7-1.1-1.3c0-0.7,0.5-1.1,1-1.4
					c0.5-0.3,1.1-0.5,1.6-0.7c1.1-0.3,2.2-0.5,3.3-0.7c2.2-0.2,4.3-0.1,6,0.1s3.2,0.5,4,1.2c0.4,0.3,0.7,0.7,0.8,0.9
					C-192,263.3-192,263.5-192,263.5z M-192,263.5c0,0,0-0.1-0.1-0.4c-0.1-0.2-0.3-0.7-0.8-0.9c-0.9-0.7-2.3-1-4-1.2
					c-1.8-0.2-3.8-0.2-5.9-0.1c-1.1,0.1-2.2,0.3-3.3,0.7c-0.5,0.2-1.1,0.3-1.5,0.7c-0.4,0.3-1,0.7-1,1.3c0,0.5,0.5,1,1.1,1.2
					c0.5,0.3,1.1,0.4,1.6,0.7c1.1,0.3,2.2,0.5,3.3,0.7c2.2,0.2,4.3,0.1,6-0.1c1.8-0.2,3.2-0.5,4-1.1c0.4-0.3,0.7-0.7,0.7-1
					C-192,263.6-192,263.5-192,263.5z"/>
			</g>
			<path id="XMLID_155_" class="st34" d="M-207.9,263.3c0,0-0.8,1.5,3.4,2.3c0,0,7,0.8,10-0.4c0,0,3-1.1,1.8-2.5
				c-0.2-0.2-1-0.8-1-0.8l-10.9,1.9l-1.8-0.2L-207.9,263.3z"/>
			<g id="XMLID_154_">
				<path id="XMLID_199_" class="st35" d="M-194,264c-1.3,0.4-2.1,0.7-2.1,0.7c-1.9,0.4-4.4,0.4-4.4,0.4c-2.2,0.1-4.9-0.5-4.9-0.5
					c-3.2-0.5-3-2.2-2.8-2.6c0-0.1,0-0.1,0-0.1c-0.2-0.3-0.1-0.8-0.1-0.8c1.1,1.8,8.1,1.9,8.1,1.9c2.4,0,5.6-0.8,5.6-0.8
					c0.5-0.2,1.3-0.4,1.5-0.9c0,0,0,0.3-0.1,0.7c0,0,0.1,0.1,0.1,0.2c0.1,0.3,0.1,1-0.8,1.6L-194,264z"/>
				<path id="XMLID_196_" class="st36" d="M-194,264c-0.7,0.2-1.3,0.4-2.1,0.7l0,0c-1.1,0.2-2.3,0.3-3.4,0.4c-1.1,0-2.3,0-3.4-0.1
					c-0.5-0.1-1.1-0.2-1.8-0.3c-0.5-0.1-1.1-0.2-1.6-0.4c-0.5-0.2-1.1-0.4-1.5-0.9c-0.4-0.4-0.5-1.1-0.4-1.6l0,0
					c-0.1-0.2-0.1-0.5-0.1-0.8v-0.1v0.1c0.3,0.4,0.9,0.8,1.4,1c0.5,0.2,1.1,0.3,1.6,0.4c1.2,0.2,2.3,0.3,3.5,0.4
					c1.2,0.1,2.3,0.1,3.5-0.1c1.2-0.1,2.3-0.3,3.5-0.7l0,0l0.9-0.3c0.2-0.1,0.5-0.2,0.8-0.4v-0.1v0.1c0,0.2,0,0.5-0.1,0.8l0,0
					c0.1,0.3,0.1,0.8,0,1.1c-0.1,0.3-0.4,0.5-0.8,0.8l0,0L-194,264z M-194.1,264.1V264l0,0c0-0.2,0.7-0.4,0.9-0.9
					c0.1-0.3,0.2-0.8,0.1-1.1l0,0l0,0c0.1-0.2,0.1-0.4,0.1-0.7l0,0c-0.2,0.2-0.4,0.4-0.8,0.5c-0.3,0.1-0.5,0.4-0.9,0.5v0.2l0,0
					c-1.1,0-2.3,0.3-3.5,0.4c-1.2,0.1-2.4,0.1-3.5,0c-1.2-0.1-2.3-0.2-3.5-0.4c-0.5-0.1-1.2-0.3-1.8-0.4c-0.5-0.2-1.1-0.4-1.4-1h0.1
					c-0.1,0.2,0,0.4,0.1,0.7l0,0l0,0c-0.2,0.5,0,1.1,0.3,1.5c0.3,0.4,0.9,0.7,1.4,0.9c0.5,0.2,1.1,0.2,1.6,0.4
					c0.5,0.1,1.1,0.2,1.6,0.3c1.1,0.2,2.3,0.2,3.4,0.2s2.3-0.3,3.4-0.3l0,0C-195.4,264.8-194.8,264.4-194.1,264.1z"/>
			</g>
			<g id="XMLID_153_">
				<path id="XMLID_194_" class="st35" d="M-208.2,261c0,0,0.5-1.8,7.2-1.8c0,0,7-0.4,8,2.1c0,0-2.8,1.9-7.3,1.6c0,0-6.6,0-7.8-1.8
					L-208.2,261z"/>
				<path id="XMLID_68_" class="st36" d="M-208.2,261c0.1-0.3,0.4-0.5,0.8-0.7c0.3-0.2,0.7-0.3,1-0.4c0.7-0.2,1.3-0.3,2-0.4
					c0.7-0.1,1.3-0.1,2.1-0.2c0.7,0,1.3,0,2.1-0.1c1.3,0,2.7,0,4,0.2c0.7,0.1,1.3,0.2,2,0.5c0.7,0.2,1.3,0.7,1.5,1.4v0.1
					c-1.1,0.7-2.4,1.1-3.7,1.4c-0.7,0.1-1.3,0.2-2,0.2c-0.3,0-0.7,0-1,0c-0.3,0-0.7,0-1,0c-1.3,0-2.6-0.1-3.9-0.3
					c-0.7-0.1-1.3-0.2-2-0.4s-1.3-0.5-1.6-1.1l0,0L-208.2,261L-208.2,261z M-208.2,261l0.1,0.2l0,0c0.4,0.5,1.1,0.8,1.6,1
					c0.7,0.2,1.3,0.3,1.9,0.4c1.3,0.2,2.6,0.2,3.9,0.2c0.3,0,0.7,0,1,0s0.7,0,1,0c0.7,0,1.3-0.1,2-0.2c1.3-0.2,2.5-0.7,3.6-1.3v0.1
					c-0.2-0.7-0.8-1-1.4-1.3c-0.7-0.2-1.3-0.4-2-0.5c-1.3-0.2-2.7-0.3-4-0.3c-0.7,0-1.3,0-2.1,0c-0.7,0-1.3,0.1-2,0.2
					s-1.3,0.2-2,0.4c-0.3,0.1-0.7,0.2-0.9,0.4C-207.8,260.5-208.1,260.7-208.2,261z"/>
			</g>
			<g id="XMLID_152_">
				<path id="XMLID_60_" class="st36" d="M-208.1,262.1c0,0,0.2,0.1,0.5,0.3s1,0.4,1.6,0.5c1.4,0.4,3.3,0.5,5.3,0.5
					c2,0,3.8-0.2,5.3-0.5c0.7-0.1,1.3-0.3,1.6-0.4c0.4-0.1,0.7-0.2,0.7-0.2l0,0c0,0-0.9,0.4-2.3,0.8c-1.4,0.3-3.4,0.5-5.3,0.5
					c-2,0-3.8-0.2-5.3-0.7c-0.7-0.2-1.3-0.4-1.6-0.7C-207.9,262.2-208.1,262.1-208.1,262.1L-208.1,262.1z"/>
			</g>
			<g id="XMLID_177_">
				<g>
					<defs>
						<path id="SVGID_21_" d="M-208.2,261c0,0,0.5-1.8,7.2-1.8c0,0,7-0.4,8,2.1c0,0-2.8,1.9-7.3,1.6c0,0-6.6,0-7.8-1.8L-208.2,261z"
							/>
					</defs>
					<clipPath id="SVGID_22_">
						<use xlink:href="#SVGID_21_"  style="overflow:visible;"/>
					</clipPath>
					<g id="XMLID_176_" class="st37">
						<line id="XMLID_151_" class="st38" x1="-197.8" y1="263" x2="-193" y2="260.6"/>
						<line id="XMLID_150_" class="st38" x1="-199.4" y1="263.4" x2="-193.2" y2="260.4"/>
						<polyline id="XMLID_149_" class="st38" points="-194.3,262.2 -198.4,261 -203.8,259.4 						"/>
						<polyline id="XMLID_148_" class="st38" points="-195.1,262.3 -198.6,261.3 -205,259.4 						"/>
						<line id="XMLID_147_" class="st38" x1="-199.7" y1="262.9" x2="-193.8" y2="260.1"/>
						<line id="XMLID_146_" class="st38" x1="-200.2" y1="262.9" x2="-194" y2="259.9"/>
						<polyline id="XMLID_143_" class="st38" points="-201.7,262.9 -195.9,260.1 -194.9,259.5 						"/>
						<polyline id="XMLID_142_" class="st38" points="-202.3,262.9 -201.9,262.7 -196.1,259.9 -195.1,259.4 						"/>
						<line id="XMLID_141_" class="st38" x1="-204.5" y1="262.9" x2="-196.3" y2="259.1"/>
						<line id="XMLID_140_" class="st38" x1="-204.8" y1="262.8" x2="-196.9" y2="259.1"/>
						<line id="XMLID_139_" class="st38" x1="-205.7" y1="262.6" x2="-198.5" y2="259.1"/>
						<line id="XMLID_138_" class="st38" x1="-206.2" y1="262.4" x2="-198.8" y2="258.9"/>
						<line id="XMLID_137_" class="st38" x1="-207.1" y1="262.2" x2="-200.9" y2="259"/>
						<line id="XMLID_136_" class="st38" x1="-207.7" y1="261.9" x2="-201.4" y2="258.9"/>
						<polyline id="XMLID_135_" class="st38" points="-195.7,262.7 -199.4,261.7 -202,261.1 -206.9,259.9 						"/>
						<polyline id="XMLID_134_" class="st38" points="-196.9,262.8 -199.7,262.1 -201.9,261.4 -207.2,260 						"/>
						<polyline id="XMLID_133_" class="st38" points="-197.9,263.1 -200.7,262.4 -203.2,261.7 -208.1,260.4 						"/>
						<polyline id="XMLID_132_" class="st38" points="-199.4,263 -200.9,262.6 -203.1,262.1 -208.2,260.7 						"/>
						<polyline id="XMLID_131_" class="st38" points="-193.2,261.4 -197.3,260.3 -201.8,259.1 						"/>
						<polyline id="XMLID_130_" class="st38" points="-193.6,261.7 -197.5,260.5 -202.7,259.2 						"/>
						<line id="XMLID_129_" class="st38" x1="-208.1" y1="261.5" x2="-203.5" y2="259.2"/>
						<line id="XMLID_128_" class="st38" x1="-208.3" y1="261.2" x2="-204.4" y2="259.3"/>
						
							<image style="overflow:visible;enable-background:new    ;" width="512" height="384" id="XMLID_117_" xlink:href="8A7D0AFF143D32FA.jpg"  transform="matrix(2.524058e-02 0 0 2.524058e-02 -202.1065 242.8823)">
						</image>
						
							<image style="overflow:visible;enable-background:new    ;" width="500" height="375" id="XMLID_103_" xlink:href="8A7D0AFF143D32FD.jpg"  transform="matrix(1.997691e-02 0 0 1.997691e-02 -212.1961 270.3197)">
						</image>
					</g>
				</g>
				<g>
					<path id="XMLID_63_" class="st38" d="M-208.2,261c0,0,0.5-1.8,7.2-1.8c0,0,7-0.4,8,2.1c0,0-2.8,1.9-7.3,1.6c0,0-6.6,0-7.8-1.8
						L-208.2,261z"/>
				</g>
			</g>
			<path id="XMLID_145_" class="st39" d="M-194,260.3c0.1,0.1-0.1,0.2-0.1,0.2c-0.2,0-0.1,0-0.1,0.1c0,0.2,0,0.2,0,0.2
				c-0.2,0.2-0.1,0.2,0,0.2c0.1,0,0.2,0.1,0.2,0.1c0.4,0.3,0.7,0.1,0.7,0.1c0-0.2,0.1-0.3,0.1-0.3c0.3-0.1,0.3,0.2,0.3,0.2
				c0.2,0,0.2,0.1,0.2,0.1c0.3,0.3,0.1,0.9,0.1,0.9c0,0.2-0.1,0.2-0.1,0.2c-0.2,0.1-0.2-0.2-0.2-0.2c0.1-0.4,0-0.7,0-0.7
				c0-0.1-0.2-0.1-0.2-0.1h-0.1c0,0-0.1,0.3-1.1,0.7h-0.1c0,0-0.1,0.1-0.1,0.4c0,0.1,0,0.2,0,0.3s0.1,0.1,0.2,0.2
				c0.1,0,0.1,0.1,0,0.5v0.3l0,0c0.3-0.1,0.7-0.2,1.1-0.4c0.1,0,0.1-0.1,0.1-0.3c0-0.1,0.1-0.1,0.2-0.2c0.3-0.2,0.4,0.1,0.5,0.2
				c0.1,0.1,0,0.2-0.1,0.2c-0.2,0-0.1,0.1-0.1,0.1c0,0.1,0.2,0,0.2,0c0.3,0,0.2,0.2,0.2,0.2c-0.1,0.2-0.3,0.1-0.3,0.1
				c-0.3,0-0.9,0.4-0.9,0.4c-0.4,0.4-0.7,0-0.7,0c-0.3,0.5-1.4,0.3-1.4,0.3c-1-0.2-1.5-0.2-1.5-0.2h0.1c0.3,0,0.7-0.1,1-0.2
				c0,0,0.2,0,0.8-0.2v-0.1c0-0.1,0.1-0.1,0.1-0.4c0-0.1,0-0.1-0.1-0.5c0-0.1-0.1-0.1-0.1-0.3c0-0.1-0.1-0.3,0-0.4
				c0-0.1,0-0.2-0.4-0.1c0,0-0.8,0.1-0.9,0.1c0,0,0-0.2-0.3,0c0,0-0.2,0.2-0.7,0.1c-0.4-0.1-0.5-0.2-0.5-0.2s-0.7-0.2-1.3-0.1
				c0,0-0.4,0-0.7,0.1c0,0-0.1,0-0.2-0.4c0,0,0-0.1-0.1-0.1c0,0-0.1-0.1-0.1,0.1c0,0,0,0.3-0.2,0.4c0,0-0.2,0-0.3-0.1
				c0,0,0.1,0.1-0.2,0.1c0,0-0.1,0-0.1,0.2h-0.4c-0.7,0.1-0.9-0.3-1.2-0.3c-0.1,0-0.3,0.1-0.4,0.1c-0.2,0-0.8-0.4-1-0.5
				c-0.1,0-0.4-0.1-0.5,0c0,0.2,0.5,0.3,0.5,0.3c-1.2-0.2-1.1-0.2-1.2-0.3s-0.5-0.1-0.7,0.3c0,0.1,0.1,0.2,0,0.3
				c-0.1,0.1-0.1,0.2-0.1,0.4c0,0.3,0,0.5-0.1,0.9l0,0c0.3,0.1,0.7,0.2,1.1,0.3c0,0,2.6,0.7,4.9,0.5l0,0c-0.4,0.3-1,0.3-1,0.3
				c-1,0.1-1.3-0.1-1.3-0.1c-0.2-0.1-0.4-0.2-0.4-0.2l-1.2-0.2c-0.4-0.1-0.9,0-0.9,0s-0.3,0.1-0.8,0.2s-0.8,0-0.8,0
				c-0.2-0.1-0.3-0.1-0.3-0.1c-0.2-0.1-0.7-0.1-0.7-0.1c-0.5,0-0.8-0.1-0.8-0.1c-0.2-0.1,0-0.3,0-0.3c0-0.2,0.4-0.3,0.4-0.3
				c0.4,0,0.7-0.2,0.9-0.1c0.1,0,0.3,0.2,0.4,0.2c0.2-0.1,0.1-0.3,0-0.4c-0.1-0.2-0.1-0.4-0.2-0.5c0-0.2,0.2-0.3,0.2-0.4
				c-0.2-0.7,0.1-0.5,0.2-0.5c0.1,0,0-0.1,0.1-0.4c0.1-0.3,0-0.3-0.1-0.4c-0.1-0.2,0.1-0.4,0.1-0.4c0.2-0.2,0.9,0,0.9,0
				c-0.3-0.1-0.5-0.2-0.7-0.4c-0.1-0.1-0.2-0.4-0.1-0.4c1.1-0.3,2.7-0.7,5.4-0.7c0,0,3.8-0.2,5.7,0.5
				C-195.2,259.6-194.3,259.9-194,260.3z"/>
		</g>
		<path id="XMLID_69_" class="st17" d="M-195,250.7c0,0-1.1-0.4-2.1-0.9l-1.1-0.4l-2.5-0.5c0,0-0.7-0.1-0.5-0.9c0,0,0-0.9,0.8-0.9
			l3.3-0.2l-0.7-0.2l-3.6-1.1c-0.4-0.4-0.1-1.1-0.1-1.1c0.2-0.8,0.7-0.7,0.7-0.7l4,1l-2.6-3.1c0,0-0.8-0.5,0-1.3
			c0.9-0.9,1.5-0.1,1.5-0.1l3.6,3.7c0.7,0.5,1,0.5,1,0.5l0.8-2.7c0.3-1.1,1.2-0.9,1.2-0.9c1.1,0.3,0.8,1.3,0.8,1.3l-0.7,5.5v0.2
			c1,1.5,7.5,9.6,7.5,9.6s2.4,4.2,3.3,3.2c1.4-1.6,3.3-4.3,3.3-4.3c1.6-1.9,1.9-2.2,1.9-2.2c3.6-3.2,8.1-8.1,8.1-8.1l-0.3,1.3
			c-0.2,1.8-3,6.7-3.7,7.9c-0.8,1.2-3,4.2-3,4.2l-4.9,4.2c-2.4,2.3-3.2,2-3.2,2c-1.5,0-3-2.1-3-2.1c-2.6-3.5-4-5.4-4-5.4l-3.6-4.8
			l-2.1-2.6L-195,250.7z"/>
		<g id="XMLID_75_">
			<path id="XMLID_56_" class="st29" d="M-252.7,255.9l-1.3-6.1c-0.4-2-0.9-4-1.4-6c-0.1-0.4-0.3-1-0.5-1.4
				c-0.1-0.2-0.2-0.4-0.3-0.7c-0.1-0.2-0.2-0.2-0.4-0.4c-0.8-0.7-1.6-1.1-2.6-1c-0.4,0-1,0.1-1.4,0.2c-0.4,0.1-0.9,0.3-1.3,0.5
				c-0.3,0.2-0.7,0.7-0.9,1c-0.2,0.4-0.4,0.9-0.4,1.3l0,0l0,0c-0.1,0.2-0.1,0.5-0.2,0.9c0,0.3,0,0.7-0.1,1c0,0.7,0,1.3,0.1,2
				c0.1,1.3,0.3,2.6,0.7,3.8c0.1,0.7,0.3,1.3,0.5,1.9c0.2,0.7,0.3,1.2,0.7,1.9l1.3,3.7l0,0l-1.5-3.6c-0.2-0.7-0.4-1.2-0.7-1.9
				c-0.2-0.7-0.4-1.2-0.5-1.9c-0.3-1.3-0.7-2.5-0.8-3.8c-0.1-0.7-0.1-1.3-0.1-2s0.1-1.3,0.2-2l0,0c0.2-1,0.7-2,1.5-2.6
				c0.4-0.3,0.9-0.5,1.4-0.7c0.5-0.1,1-0.2,1.5-0.2c0.5,0,1.1,0.1,1.5,0.3c0.4,0.2,0.9,0.5,1.3,0.9c0.4,0.3,0.8,0.8,0.9,1.2
				c0.2,0.4,0.3,1,0.5,1.4c0.5,2,1,4,1.3,6L-252.7,255.9L-252.7,255.9z"/>
		</g>
		<g id="XMLID_83_">
			<path id="XMLID_226_" class="st29" d="M-240.5,260.1l6.5-3.2h0.1l0.1,0.1c1.1,0.8,2,1.8,2.6,2.8c0.3,0.5,0.7,1.2,0.9,1.8
				c0.1,0.3,0.2,0.7,0.2,1c0.1,0.3,0.1,0.7,0.1,1v0.2l-0.2,0.1c-3.2,1.3-6.3,2.5-9.6,3.7l0,0c3.2-1.4,6.2-2.8,9.5-4.2l-0.1,0.2
				c-0.1-0.7-0.1-1.2-0.3-1.9c-0.2-0.5-0.4-1.2-0.8-1.8c-0.7-1.1-1.5-2.1-2.5-2.8h0.1L-240.5,260.1L-240.5,260.1z"/>
		</g>
		<g id="XMLID_64_">
			<path id="XMLID_224_" class="st20" d="M-175.2,254.4c0.3,0.9,0.5,1.8,0.8,2.6c0.2,0.9,0.3,1.9,0.5,2.7h-0.1
				c0.3-0.5,0.7-1.2,1-1.8s0.7-1.1,1-1.8c0.8-1.1,1.5-2.2,2.3-3.3l0,0c-0.7,1.2-1.3,2.3-2,3.5c-0.3,0.5-0.8,1.1-1.1,1.6
				c-0.4,0.5-0.8,1.1-1.2,1.6l-0.1,0.1v-0.1c-0.2-0.9-0.5-1.8-0.8-2.6C-174.8,256.1-175.1,255.3-175.2,254.4L-175.2,254.4z"/>
		</g>
		<g id="XMLID_78_">
			<path id="XMLID_222_" class="st20" d="M-177.7,262.9c0,0-0.1-0.3-0.2-0.7c-0.1-0.4-0.2-1-0.3-1.5c-0.1-0.5-0.1-1.2-0.1-1.6
				s0.1-0.8,0.1-0.8l0,0c0,0,0,0.3,0,0.8s0.1,1,0.2,1.6C-177.9,261.8-177.7,262.9-177.7,262.9L-177.7,262.9z"/>
		</g>
		<g id="XMLID_85_">
			<path id="XMLID_220_" class="st20" d="M-171,292.8c0,0-0.7-0.5-1.8-1.3c-1.1-0.8-2.4-2-3.7-3.1c-1.3-1.1-2.6-2.3-3.6-3.2
				c-1-0.9-1.6-1.5-1.6-1.5s0.7,0.5,1.8,1.3c1.1,0.8,2.4,2,3.7,3.1c1.3,1.1,2.6,2.3,3.6,3.2C-171.7,292.2-171,292.8-171,292.8z"/>
		</g>
		<g id="XMLID_86_">
			<path id="XMLID_218_" class="st40" d="M-253.1,247.3c0-1.1,0-2.1-0.2-3c-0.1-1-0.4-1.9-0.9-2.7v0.1c-0.8-1.1-1.5-2.3-2.2-3.6
				c1.1,0.9,2.1,2,3,3.1l0,0l0,0c0.5,1,0.9,2,0.9,3.1C-252.4,245.2-252.6,246.3-253.1,247.3z"/>
		</g>
		<g id="XMLID_93_">
			<path id="XMLID_216_" class="st40" d="M-251.9,245.6c0,0,0.1-0.2,0.3-0.5c0.1-0.1,0.2-0.3,0.4-0.4c0.2-0.1,0.3-0.3,0.5-0.4
				s0.4-0.2,0.5-0.4c0.2-0.1,0.4-0.2,0.5-0.3c0.3-0.1,0.7-0.2,0.7-0.2l0,0c0,0-0.8,0.5-1.5,1.2
				C-251.1,245.1-251.9,245.8-251.9,245.6L-251.9,245.6z"/>
		</g>
		<g id="XMLID_70_">
			<path id="XMLID_214_" class="st41" d="M-268.9,278.6c1,0.9,2,1.9,2.7,2.8c0.9,1,1.6,2.1,2.4,3.2l-0.4-0.1
				c1.1-0.2,2.2-0.3,3.4-0.3c-1.1,0.4-2.1,0.9-3.2,1.2l-0.2,0.1l-0.2-0.2c-0.9-1-1.6-2.1-2.4-3.2
				C-267.6,281-268.4,279.9-268.9,278.6z"/>
		</g>
		<g id="XMLID_94_">
			<path id="XMLID_212_" class="st42" d="M-237.3,294.2c1.5,0.1,3,0.2,4.5,0.5h0.2v0.2c0.1,1.1,0.1,2.3,0.2,3.5c0,1.2,0,2.3,0,3.5
				c-0.2-1.1-0.3-2.3-0.4-3.4c-0.1-1.1-0.2-2.3-0.2-3.4l0.2,0.2C-234.4,294.9-235.8,294.7-237.3,294.2z"/>
		</g>
		<g id="XMLID_97_">
			<path id="XMLID_210_" class="st42" d="M-225.7,298.9l-0.5-3.8c-0.2-1.3-0.3-2.5-0.5-3.8c0-0.1,0-0.3-0.1-0.4l-0.1-0.2l-0.1-0.1
				c-0.1-0.2-0.3-0.4-0.7-0.5c-0.4-0.3-1.1-0.7-1.6-0.9c-1.1-0.5-2.3-1-3.5-1.3l0,0c-2-0.4-4-0.8-6-1.3l-6-1.3c-2-0.4-3.9-1-6-1.4
				c-2-0.4-3.9-1-5.9-1.5l0,0l24,5.1l0,0c1.2,0.4,2.4,0.9,3.6,1.4c0.5,0.3,1.1,0.5,1.6,1c0.2,0.2,0.5,0.4,0.7,0.7
				c0.2,0.2,0.2,0.7,0.2,0.9L-225.7,298.9L-225.7,298.9z"/>
		</g>
		<g id="XMLID_82_">
			<path id="XMLID_231_" class="st29" d="M-222.2,257.6c0.3-0.7,0.7-1.3,1-2l1-2c0.8-1.3,1.3-2.6,2.1-3.8l0.1,0.5
				c-0.9-0.8-1.8-1.4-2.6-2.2c-0.9-0.8-1.6-1.5-2.5-2.3l0,0l5.4,4.2l0,0l0,0C-219,252.5-220.6,255.1-222.2,257.6L-222.2,257.6z"/>
		</g>
	</g>
</g>
<g id="delicioso" class="st0">
	<g id="Layer_7" class="st2">
		<g id="XMLID_44_">
			
				<ellipse id="XMLID_54_" transform="matrix(-0.124 0.9923 -0.9923 -0.124 39.6055 508.1533)" class="st43" cx="-204.5" cy="271.6" rx="89.9" ry="93"/>
		</g>
		<g id="XMLID_46_">
			<g id="XMLID_48_">
				<path id="XMLID_45_" class="st44" d="M-183.3,250.3c0,0,0.2-0.6,0.8-1.6c0.2-0.5,0.6-1.1,1-1.7c0.5-0.7,0.9-1.4,1.5-2.2
					c0.6-0.8,1.3-1.6,2.1-2.3c0.8-0.8,1.7-1.5,2.7-2.2c0.6-0.3,1.1-0.6,1.6-0.9c0.6-0.2,1.1-0.5,1.8-0.7c1.3-0.3,2.6-0.6,4-0.5
					c1.4,0.1,2.6,0.3,3.8,0.7c1.3,0.3,2.4,0.8,3.5,1.4c0.6,0.3,1,0.6,1.6,0.9c0.5,0.3,0.9,0.7,1.4,1c0.5,0.3,0.8,0.8,1.3,1.1
					c0.3,0.3,0.7,0.8,1,1.1c0.3,0.3,0.6,0.8,0.8,1.1c0.2,0.3,0.5,0.7,0.7,1.1c0.3,0.7,0.7,1.3,0.9,1.8c0.3,1,0.6,1.7,0.6,1.7
					l-1.1,0.3c0,0-0.2-0.6-0.6-1.6c-0.1-0.5-0.6-1-0.9-1.7c-0.1-0.3-0.3-0.7-0.7-1c-0.2-0.3-0.5-0.7-0.8-1c-0.3-0.3-0.6-0.7-0.9-1
					c-0.3-0.3-0.7-0.7-1.1-1c-0.3-0.3-0.8-0.6-1.3-0.9c-0.5-0.2-0.9-0.6-1.5-0.8c-1-0.5-2.1-0.9-3.2-1.3c-1.1-0.3-2.3-0.6-3.5-0.6
					c-1.1,0-2.3,0.1-3.4,0.3c-0.6,0.1-1.1,0.3-1.6,0.6c-0.5,0.2-1,0.5-1.5,0.8c-0.9,0.6-1.8,1.3-2.5,1.9c-0.8,0.7-1.5,1.5-2.1,2.2
					c-0.6,0.7-1,1.4-1.5,2.1c-0.5,0.6-0.8,1.1-1,1.6c-0.6,0.9-0.8,1.5-0.8,1.5L-183.3,250.3z"/>
			</g>
			<g id="XMLID_59_">
				<path id="XMLID_39_" class="st44" d="M-226.7,250.8c0,0-0.2-0.6-0.8-1.5c-0.2-0.5-0.6-1-1-1.6c-0.5-0.6-0.9-1.3-1.5-2.1
					c-0.6-0.7-1.3-1.5-2.1-2.2c-0.8-0.7-1.6-1.4-2.5-1.9c-0.5-0.3-1-0.6-1.5-0.8c-0.6-0.2-1-0.5-1.6-0.6c-1.1-0.3-2.3-0.5-3.4-0.3
					c-1.1,0.1-2.4,0.3-3.5,0.6c-1.1,0.3-2.2,0.8-3.2,1.3c-0.5,0.2-1,0.6-1.5,0.8c-0.5,0.3-0.9,0.6-1.3,0.9c-0.3,0.3-0.8,0.7-1.1,1
					c-0.3,0.3-0.7,0.7-0.9,1c-0.3,0.3-0.5,0.7-0.8,1c-0.2,0.3-0.5,0.7-0.7,1c-0.3,0.7-0.7,1.1-0.9,1.7c-0.3,1-0.6,1.6-0.6,1.6
					l-1.1-0.3c0,0,0.2-0.6,0.6-1.7c0.1-0.6,0.6-1.1,0.9-1.8c0.1-0.3,0.3-0.7,0.7-1.1c0.2-0.3,0.5-0.8,0.8-1.1c0.3-0.3,0.7-0.8,1-1.1
					c0.3-0.3,0.8-0.7,1.3-1.1c0.5-0.3,0.9-0.7,1.4-1c0.5-0.3,1-0.6,1.6-0.9c1.1-0.6,2.3-1,3.5-1.4c1.3-0.3,2.5-0.6,3.8-0.7
					c1.4,0,2.6,0.1,4,0.5c0.6,0.2,1.3,0.5,1.8,0.7c0.6,0.3,1.1,0.6,1.6,0.9c1,0.7,1.9,1.4,2.7,2.2c0.8,0.8,1.5,1.6,2.1,2.3
					c0.6,0.8,1.1,1.5,1.5,2.2c0.5,0.7,0.8,1.3,1,1.7c0.6,1,0.8,1.6,0.8,1.6L-226.7,250.8z"/>
			</g>
		</g>
		<g id="XMLID_8_">
			<g id="XMLID_42_">
				<path id="XMLID_37_" class="st45" d="M-248.2,314.3c0,0-0.8,0.2-1.6,0.9c-0.2,0.2-0.5,0.3-0.7,0.6c-0.2,0.2-0.5,0.5-0.7,0.7
					c-0.5,0.5-0.8,1-1.1,1.7c-0.1,0.3-0.3,0.7-0.5,0.9c-0.1,0.3-0.2,0.7-0.3,1c-0.1,0.3-0.2,0.7-0.3,0.9c-0.1,0.3-0.1,0.6-0.2,0.9
					c-0.1,0.6-0.2,1-0.3,1.4c-0.1,0.3-0.1,0.6-0.1,0.6s0-0.2-0.1-0.6c0-0.3-0.1-0.8-0.1-1.4c0-0.3,0-0.6,0-0.9c0-0.3,0.1-0.7,0.1-1
					c0.1-0.3,0.1-0.7,0.3-1.1c0.1-0.3,0.2-0.7,0.5-1.1c0.1-0.3,0.5-0.7,0.7-1c0.2-0.3,0.5-0.6,0.8-0.9c0.2-0.2,0.6-0.5,0.9-0.7
					c0.2-0.2,0.6-0.3,0.9-0.5C-249.1,314.2-248.2,314.3-248.2,314.3z"/>
			</g>
			<path id="XMLID_43_" class="st46" d="M-139.3,288.8c0,0,24.5-3.4,17.6,11.8C-121.7,300.7-127.6,308.9-139.3,288.8z"/>
			<path id="XMLID_41_" class="st46" d="M-138,301.9c0,0,20.7,13.6,5.4,20.5C-132.7,322.4-142.6,324.7-138,301.9z"/>
			<path id="XMLID_47_" class="st47" d="M-155.4,288.7c11.7,2.2,8.6,15.6,8.6,15.6c-3.3,24.1-28.7,28.1-28.7,28.1
				c-4,1.5-16,0.5-16,0.5c9.8-1.3,12.2-4.2,12.2-4.2s11.2-8.8,11.7-28.6C-167.7,300.1-166.1,286.7-155.4,288.7z"/>
			<g id="XMLID_50_">
				<path id="XMLID_35_" class="st45" d="M-253.4,319.2c2.5,1.4,5,2.4,7.7,3.5c2.6,1,5.3,1.9,7.9,2.9c1.4,0.5,2.6,0.8,4,1.1
					c1.4,0.3,2.6,0.8,4,1c1.4,0.3,2.7,0.7,4,0.9c1.4,0.2,2.7,0.6,4.1,0.8c2.7,0.5,5.5,0.9,8.2,1.1c2.7,0.3,5.5,0.5,8.2,0.6
					c1.4,0,2.7,0.1,4.1,0.1s2.7,0,4.1,0c1.4,0,2.7-0.1,4.1-0.2l4.1-0.3h0.2h0.1c0.7,0,1.5,0,2.3,0s1.6-0.1,2.4-0.1
					c1.6-0.1,3.2-0.3,4.7-0.6c3.2-0.5,6.3-1.3,9.3-2.2c1.5-0.5,3-1,4.5-1.6c1.5-0.7,3-1.3,4.3-2.1c0.7-0.3,1.4-0.8,2.1-1.1
					c0.7-0.5,1.4-0.8,2.1-1.3c0.7-0.5,1.4-0.9,1.9-1.4c0.7-0.5,1.3-1,1.9-1.5c-0.6,0.6-1,1.3-1.7,1.8c-0.6,0.6-1.1,1.1-1.8,1.7
					c-1.3,1.1-2.5,2.2-3.9,3.1c-2.7,1.9-5.7,3.4-8.8,4.8c-3.1,1.3-6.3,2.2-9.6,3c-1.6,0.3-3.3,0.6-4.9,0.8c-0.8,0.1-1.7,0.2-2.5,0.2
					c-0.8,0.1-1.7,0.1-2.6,0.1h0.2c-1.4,0.1-2.9,0.3-4.2,0.5c-1.4,0.1-2.9,0.2-4.2,0.2c-2.9,0.1-5.7,0.1-8.6,0
					c-2.9-0.1-5.7-0.3-8.6-0.8c-1.4-0.1-2.9-0.5-4.2-0.7c-1.4-0.2-2.9-0.6-4.2-0.8c-2.7-0.6-5.5-1.4-8.2-2.3c-2.7-0.9-5.4-1.8-8-3
					c-1.3-0.6-2.6-1.1-3.9-1.8c-1.3-0.6-2.5-1.3-3.8-1.9C-248.9,322.5-251.3,321-253.4,319.2z"/>
			</g>
			<g id="XMLID_58_">
				<path id="XMLID_33_" class="st45" d="M-169,328.9c0,0,0.2-0.3,0.8-0.9c0.2-0.2,0.6-0.6,0.8-1c0.1-0.2,0.3-0.5,0.5-0.6
					c0.2-0.2,0.5-0.3,0.7-0.6c0.9-0.8,1.9-1.8,3-3c0.5-0.6,1-1.1,1.5-1.8c0.5-0.6,1-1.3,1.5-1.9c0.5-0.7,0.9-1.4,1.3-2.1
					c0.5-0.7,0.7-1.4,1-2.1c0.2-0.7,0.5-1.4,0.7-2.1c0.1-0.7,0.2-1.3,0.5-1.9c0-0.3,0-0.6,0.1-0.8c0.1-0.2,0.1-0.6,0.2-0.8
					c0.1-0.5,0.1-0.9,0.1-1.3c0-0.7,0.1-1.1,0.1-1.1s0.1,0.3,0.3,1.1c0.1,0.3,0.2,0.8,0.3,1.4c0,0.2,0,0.6,0.1,0.8
					c0,0.3,0,0.6,0,0.9c-0.1,0.7-0.2,1.4-0.5,2.1c-0.2,0.7-0.5,1.5-0.8,2.2s-0.7,1.5-1.1,2.2c-0.5,0.7-0.8,1.5-1.4,2.2
					c-0.5,0.7-0.9,1.4-1.5,2.1c-0.5,0.7-1,1.3-1.6,1.8c-1,1.1-2.1,2.3-3,3.1c-0.2,0.2-0.5,0.5-0.7,0.6c-0.2,0.1-0.5,0.3-0.7,0.5
					c-0.5,0.2-0.8,0.5-1.1,0.7C-168.7,328.8-169,328.9-169,328.9z"/>
			</g>
		</g>
	</g>
</g>
<g id="divertido" class="st0">
	<g id="Layer_6" class="st2">
		<g id="XMLID_4_">
			<path id="XMLID_6_" class="st43" d="M-215.7,363.5c-51-6.5-87.4-52.3-81.2-102.3c6.2-50,52.5-85.4,103.5-78.9
				c51,6.5,87.4,52.3,81.2,102.3C-118.3,334.6-164.6,369.9-215.7,363.5z"/>
			<g id="XMLID_51_">
				<ellipse id="XMLID_28_" class="st48" cx="-170.2" cy="247.1" rx="15.3" ry="15.6"/>
				<ellipse id="XMLID_29_" class="st44" cx="-168.1" cy="247.3" rx="9.2" ry="9.3"/>
				<path id="XMLID_30_" class="st49" d="M-208.5,248.9L-208.5,248.9c-0.8,1.6-2.6,2.3-4.2,1.7c-5-2-17.5-4.9-40.5,0.7
					c0,0-4.6-0.8,0.2-6.2c0.3-0.5,23.4-10,43-0.7C-208.2,245.2-207.7,247.3-208.5,248.9z"/>
			</g>
			<g id="XMLID_31_">
				<path id="XMLID_27_" class="st50" d="M-253.1,289.4c0,0,61.4,10.7,96.2,1c0,0-6,50.8-45.8,56.8
					C-202.8,347.2-238.7,352.6-253.1,289.4z"/>
				<path id="XMLID_26_" class="st47" d="M-187,295.6l-0.8,48.5c0,0-6.8,15.2-19.6,13.6l-1.1-0.1c-12.8-1.6-16.8-14.1-16.8-14.1
					l-0.6-50.7l39.2,1.7L-187,295.6z"/>
				<line id="XMLID_32_" class="st51" x1="-206.2" y1="293.7" x2="-205.6" y2="316.1"/>
			</g>
		</g>
	</g>
</g>
<g id="saludable">
	<g id="Layer_1_1_">
		<g id="XMLID_52_">
			<path id="XMLID_10_" class="st52" d="M-204.7,366.4c0,0,114.5-67.5,81.6-137.2c-8.7-18.5-49.5-43.6-81.6,0"/>
			<path id="XMLID_7_" class="st53" d="M-204,366.4c0,0-114.5-67.5-81.6-137.2c8.7-18.5,49.5-43.6,81.6,0"/>
			<g id="XMLID_22_">
				<path id="XMLID_17_" class="st54" d="M-157,248.6c3.3,2.4,6.8-0.1,8.1-1.8c2.3-2.9,5.3-6.4,4.8-9.8c-1.6-10.7-10.7-7.4-13-5.2
					h-0.1c-2.3-2.2-11.3-5.5-13,5.2c-0.5,3.4,2.5,7.3,4.8,10.1c1.3,1.6,4.8,4.1,8.1,1.6L-157,248.6z"/>
				<path id="XMLID_23_" class="st54" d="M-156.3,227.8c0,0-2.3-4.4,4.2-5.8c0,0,2.2-0.3,2.5-1.3c0,0,0.9,3.2-1.2,4.9
					C-150.8,225.5-152.8,227.7-156.3,227.8z"/>
				<path id="XMLID_24_" class="st55" d="M-162.1,224.2c0,0,0.5-1.3,1.8-0.8c0,0,3.8,3,3.7,5.5l-0.1,1.8h-0.5c0,0,0.4-2.7-1-3.8
					C-158.2,226.9-160.1,225-162.1,224.2z"/>
			</g>
			<path id="XMLID_25_" class="st56" d="M-165.9,242.7c0,0-0.2-0.1-0.4-0.4c-0.3-0.3-0.7-0.8-1-1.4c-0.3-0.7-0.8-1.4-1-2.4
				c-0.1-0.4-0.2-1-0.2-1.5c0-0.5,0-1.1,0.1-1.5l0,0l0,0l0,0v-0.1V235c0-0.1,0.1-0.2,0.1-0.4c0.1-0.2,0.2-0.5,0.3-0.8
				c0.2-0.4,0.5-0.9,0.8-1.3c0.3-0.3,0.7-0.7,1-1c0.3-0.3,0.7-0.5,1-0.8c0.3-0.2,0.7-0.3,0.9-0.4c0.2-0.1,0.5-0.2,0.8-0.3
				c0.2-0.1,0.3-0.1,0.4-0.1c0.1,0,0.2,0,0.2,0l0.1,0.2c0,0-0.2,0.1-0.5,0.4c-0.1,0.1-0.3,0.3-0.5,0.4c-0.2,0.2-0.4,0.4-0.7,0.7
				c-0.2,0.2-0.5,0.5-0.8,0.8c-0.2,0.3-0.4,0.7-0.7,1c-0.2,0.3-0.4,0.7-0.5,1.1c-0.1,0.2-0.1,0.4-0.2,0.5c0,0.1-0.1,0.2-0.1,0.3
				l-0.1,0.3c-0.1,0.4-0.1,0.9-0.1,1.2c0,0.4,0,0.9,0.1,1.2c0.1,0.8,0.3,1.6,0.4,2.3c0.2,0.7,0.4,1.2,0.5,1.6s0.2,0.7,0.2,0.7
				H-165.9z"/>
		</g>
	</g>
</g>
<g id="Layer_10" class="st0">
	
		<image style="display:inline;overflow:visible;" width="1142" height="461" xlink:href="Captura de pantalla 2016-07-22 a las 2.59.41 p.m..png"  transform="matrix(0.1417 0 0 0.1417 -16.3004 127.9371)">
	</image>
	
		<image style="display:inline;overflow:visible;" width="1119" height="448" xlink:href="Captura de pantalla 2016-07-22 a las 2.59.01 p.m..png"  transform="matrix(0.1514 0 0 0.1514 -22.0299 205.0358)">
	</image>
	
		<image style="display:inline;overflow:visible;" width="1151" height="434" xlink:href="Captura de pantalla 2016-07-22 a las 2.56.17 p.m..png"  transform="matrix(0.1406 0 0 0.1406 -16.3004 294.8098)">
	</image>
	
		<image style="display:inline;overflow:visible;" width="1144" height="436" xlink:href="Captura de pantalla 2016-07-22 a las 2.54.36 p.m..png"  transform="matrix(0.1396 0 0 0.1396 -22.0299 376.4557)">
	</image>
</g>
<g id="text_x5F_salud">
	<rect x="-317.3" y="395.9" class="st57" width="225.6" height="35.1"/>
	<text transform="matrix(1 0 0 1 -286.0571 421.4659)" class="st58 st59 st60">Saludable</text>
</g>
<g id="text_x5F_salud_copy" class="st0">
	<rect x="-317.3" y="395.9" class="st61" width="225.6" height="35.1"/>
	<text transform="matrix(1 0 0 1 -281.9351 421.4659)" class="st62 st59 st60">Divertido</text>
</g>
<g id="text_x5F_salud_copy_2" class="st0">
	<rect x="-317.3" y="395.9" class="st61" width="225.6" height="35.1"/>
	<text transform="matrix(1 0 0 1 -288.0005 421.4659)" class="st62 st59 st60">Compartir</text>
</g>
<g id="text_x5F_salud_copy_3" class="st0">
	<rect x="-317.3" y="395.9" class="st61" width="225.6" height="35.1"/>
	<text transform="matrix(1 0 0 1 -279.4868 421.4659)" class="st62 st59 st60">Delicioso</text>
</g>
</svg>
